<?xml version="1.0" encoding="UTF-8" standalone="no"?>
<svg
   xmlns:dc="http://purl.org/dc/elements/1.1/"
   xmlns:cc="http://creativecommons.org/ns#"
   xmlns:rdf="http://www.w3.org/1999/02/22-rdf-syntax-ns#"
   xmlns:svg="http://www.w3.org/2000/svg"
   xmlns="http://www.w3.org/2000/svg"
   xmlns:sodipodi="http://sodipodi.sourceforge.net/DTD/sodipodi-0.dtd"
   xmlns:inkscape="http://www.inkscape.org/namespaces/inkscape"
   version="1.1"
   id="svg867"
   width="527.52203"
   height="102.44611"
   viewBox="0 0 527.52203 102.44611"
   sodipodi:docname="Poppin'Party_logo.svg"
   inkscape:version="1.0.2 (e86c870879, 2021-01-15)">
  <metadata
     id="metadata873">
    <rdf:RDF>
      <cc:Work
         rdf:about="">
        <dc:format>image/svg+xml</dc:format>
        <dc:type
           rdf:resource="http://purl.org/dc/dcmitype/StillImage" />
        <dc:title></dc:title>
      </cc:Work>
    </rdf:RDF>
  </metadata>
  <defs
     id="defs871" />
  <sodipodi:namedview
     pagecolor="#ffffff"
     bordercolor="#666666"
     borderopacity="1"
     objecttolerance="10"
     gridtolerance="10"
     guidetolerance="10"
     inkscape:pageopacity="0"
     inkscape:pageshadow="2"
     inkscape:window-width="1920"
     inkscape:window-height="1014"
     id="namedview869"
     showgrid="false"
     inkscape:zoom="1.9987552"
     inkscape:cx="-68.269476"
     inkscape:cy="42.16361"
     inkscape:window-x="0"
     inkscape:window-y="0"
     inkscape:window-maximized="1"
     inkscape:current-layer="g1300"
     fit-margin-top="0"
     fit-margin-left="0"
     fit-margin-right="0"
     fit-margin-bottom="0" />
  <g
     inkscape:groupmode="layer"
     inkscape:label="Image"
     id="g875"
     transform="translate(-5.419032,-5.1471526)">
    <g
       id="g1300"
       transform="matrix(0.58328592,0,0,0.54855503,937.63914,98.215782)">
      <g
         id="g1417">
        <path
           style="fill:#321d15"
           d="m -1405.3507,12.368239 c -9.293,-1.47019 -17.8303,-9.2213904 -20.3285,-18.4566404 -0.6083,-2.24875 -1.2434,-4.5935296 -1.4113,-5.2106196 -0.2081,-0.7648 -2.1609,-0.49551 -6.1344,0.84592 -25.5365,8.6210696 -54.0291,-4.16978 -66.6189,-29.90643 l -2.046,-4.182489 -4.5835,2.286899 c -2.5209,1.2578 -6.7446,3.09757 -9.386,4.08839 l -4.8025,1.80149 0.7573,5.5941 c 2.5354,18.73037 -2.1069,31.12329958 -13.9434,37.2230096 -4.5095,2.32386 -18.6756,4.2335504 -27.321,3.6830604 -10.6099,-0.6755904 -20.612,-9.1163604 -23.2902,-19.6546304 -0.5112,-2.0115396 -1.4287,-14.4044396 -2.0389,-27.5397796 -0.6101,-13.13534 -1.7919,-30.23534 -2.6263,-38 -4.9602,-46.161929 -6.1377,-60.593169 -5.3504,-65.573219 1.4243,-9.01066 7.6116,-17.00396 15.5995,-20.15293 4.7331,-1.86586 24.0623,-3.80245 38.4084,-3.84814 20.2203,-0.0644 30.6664,3.03784 44.4667,13.20559 6.6115,4.8712 14.5901,14.66666 17.7167,21.75114 1.0922,2.475 2.1091,4.64401 2.2596,4.82003 0.1505,0.17601 3.1457,-0.56706 6.656,-1.65127 13.3767,-4.13165 26.6978,-3.64521 37.6818,1.37602 2.954,1.35037 5.4785,2.45522 5.6101,2.45522 0.1316,0 0.4888,-2.41758 0.7937,-5.3724 0.9912,-9.60305 6.746,-17.48917 15.7254,-21.54906 5.8774,-2.6574 25.2161,-2.90093 31.5,-0.39668 2.7535,1.09734 7.7394,1.65243 16,1.78131 16.0363,0.25021 26.2707,3.26581 34.4547,10.15222 3.1394,2.64162 3.5714,2.71421 16.8835,2.8372 12.1868,0.11259 14.2016,0.38402 18.6618,2.514 7.1425,3.41098 12.1465,2.93223 15.8332,-1.51483 1.5584,-1.87968 4.9825,-4.58735 7.6093,-6.01703 4.3783,-2.38295 4.8744,-3.03902 5.9573,-7.87774 2.3145,-10.34243 9.4875,-16.73218 19.4988,-17.36965 7.4755,-0.476 11.9816,1.45278 18.0543,7.72791 3.7208,3.84482 4.2896,4.08475 9.6849,4.08475 7.0709,0 10.399,1.2025 14.6998,5.31133 5.7793,5.52138 7.4694,10.0033 6.9316,18.38225 l -0.4689,7.30642 h 9.2847 c 5.1066,0 10.427,0.43429 11.8231,0.96508 1.8095,0.68798 3.7306,0.54442 6.6908,-0.5 2.2839,-0.80579 5.8592,-1.46508 7.9453,-1.46508 3.7778,0 3.8012,-0.0255 5.9465,-6.47226 2.7564,-8.28295 8.9615,-15.38363 16.2298,-18.57219 6.6545,-2.91926 21.1137,-3.32551 26.925,-0.75648 l 3.6456,1.61162 3.3544,-3.53135 c 4.5701,-4.81117 9.2221,-6.7131 24.9307,-10.19282 30.1887,-6.68728 44.7735,-5.93235 62.4238,3.23115 7.991,4.14875 20.08628,16.31083 24.39317,24.52795 3.07479,5.86642 3.52535,6.29503 5.96635,5.67564 5.54753,-1.40765 23.36519,-1.73724 29.42844,-0.54437 6.19851,1.21948 13.16607,4.33069 17.64199,7.87764 2.40576,1.90644 2.47071,1.9043 6.5,-0.21442 3.59639,-1.8911 5.69895,-2.14011 18.06996,-2.14011 12.24465,0 14.52938,0.26465 18.22212,2.11074 3.91935,1.95939 4.5983,2.01317 9.46793,0.75 2.88519,-0.74841 6.66764,-1.36074 8.40543,-1.36074 1.7378,0 3.66214,-0.60549 4.27632,-1.34553 0.61418,-0.74004 2.9054,-2.15213 5.0916,-3.13796 3.496,-1.57648 4.16539,-2.44771 5.55604,-7.23138 2.68665,-9.24177 11.82115,-17.37892 21.13879,-18.83076 4.99876,-0.77888 21.93635,1.78488 26.68786,4.03962 4.79929,2.27741 10.92935,9.28053 12.62748,14.42592 l 1.33703,4.05125 3.0947,-1.8941 c 5.7268,-3.50506 10.60132,-4.19662 21.22811,-3.01166 11.20884,1.24986 15.57592,2.78689 19.95259,7.02249 l 3.08599,2.98653 5.26304,-2.73057 c 3.32384,-1.72447 7.36481,-2.88259 10.96731,-3.14317 5.98295,-0.43276 20.10024,1.97697 26.09766,4.45471 9.92064,4.09856 16.19937,16.00207 13.89791,26.348319 -0.5501,2.47296 -11.83232,25.42129 -25.07161,50.99629 -25.15393,48.59110958 -27.85838,52.8575896 -36.25391,57.1934496 -5.97294,3.0847204 -13.54119,3.3566504 -25.50587,0.91643 -12.79897,-2.61037 -18.18967,-5.56644 -22.3471,-12.25434 -2.27282,-3.6562 -3.47664,-4.75017 -4.64381,-4.22007 -0.86658,0.39358 -7.27121,0.90572 -14.2325,1.13809 -9.84887,0.32876 -13.95321,0.0499 -18.5,-1.25684 -10.75253,-3.0903196 -19.7723,-10.4825996 -24.68486,-20.2308196 -3.51417,-6.97333 -4.05315,-10.41041 -3.76916,-24.0359 l 0.25532,-12.25 h -2.96142 c -1.62878,0 -4.02377,0.85962 -5.32221,1.91027 -2.27297,1.83921 -2.38136,2.55525 -2.91415,19.25 -0.60615,18.99315 -1.28309,21.73654 -6.95869,28.20068 -1.79423,2.04352 -5.33185,4.9283596 -7.86136,6.4107596 -4.01192,2.35114 -5.87764,2.73666 -14.61285,3.01954 -6.52154,0.2112 -11.87487,-0.17573 -15.35049,-1.1095 -4.62619,-1.24288 -5.95767,-1.2438 -10,-0.007 -3.03036,0.92727 -8.33992,1.35245 -15.16324,1.21426 -6.24075,-0.12639 -12.32539,0.31072 -15,1.07758 -6.54688,1.87711 -19.42059,1.69493 -26.5,-0.375 -10.38991,-3.03788 -19.14661,-10.0491496 -23.73321,-19.0025396 -1.4605,-2.851 -1.5007,-2.74591 -1.9557,5.11422 -1.0711,18.50196958 -12.2804,27.1699396 -37.5355,29.02553 -6.421,0.47178 -7.8337,0.23268 -12.7041,-2.1501504 -10.9459,-5.35525 -13.4412,-10.49551 -18.0319,-37.1465296 -4.4778,-25.99491 -14.2888,-70.43212 -15.5503,-70.43212 -0.3675,0 -1.1435,1.0125 -1.7244,2.25 -0.5808,1.2375 -2.7388,4.19253 -4.7955,6.56673 l -3.7394,4.31673 -0.115,29.68327 -0.1149,29.68327 -2.9682,5.3588 c -1.6325,2.94734 -4.7637,6.8957 -6.9582,8.77412 -9.4933,8.1258996 -30.2132,9.9215996 -39.4131,3.4157396 -2.2165,-1.5674396 -2.6099,-1.5202396 -7.4901,0.8985 -4.5005,2.23058 -6.6787,2.59428 -17.2554,2.8811 -9.0692,0.24593 -12.9993,-0.0455 -15.6721,-1.16232 -3.0681,-1.28192 -4.1047,-1.29902 -7.4052,-0.12215 -4.7949,1.70973 -25.6959,1.91408 -30.4385,0.2976 -9.2726,-3.16051 -16.2171,-11.5852696 -17.5469,-21.2871896 -0.5168,-3.77065 -0.9447,-4.5288 -2.2454,-3.9784 -6.8412,2.89484 -11.4554,4.3925 -16.7296,5.42996 l -6.1227,1.20435 -0.641,6.25709 c -1.6457,16.0627596 -8.5715,26.1688196 -20.2726,29.58176 -5.2656,1.53584 -22.5424,-0.0867 -27.4817,-2.5809004 -11.6264,-5.87104 -15.7038,-16.10418 -13.2843,-33.3398796 0.8047,-5.73284 1.3056,-10.58091 1.113,-10.77349 -0.4472,-0.44717 -13.8194,2.95473 -15.306,3.89384 -0.6469,0.40869 -1.3292,5.03424 -1.6195,10.97885 -0.7991,16.3639196 -5.5534,25.5643196 -15.9516,30.86908 -4.6633,2.37903 -18.6458,3.36616 -27.6048,1.94882 z m 26.5665,-10.8794904 c 6.3855,-4.55449 9.2274,-13.9766196 9.2274,-30.5934496 v -10.32922 l 7.5133,-1.11747 c 9.4529,-1.40595 17.1754,-4.098969 22.9717,-8.01087 5.4428,-3.6733 5.2538,-5.05078 2.3956,17.46252 -1.2847,10.11966 -1.8827,18.59795 -1.4678,20.80967 0.4008,2.1366896 2.1943,5.3862296 4.1951,7.6008696 4.0806,4.51672 9.2527,6.01216 20.7934,6.01216 12.9029,0 17.4284,-5.41387 20.0714,-24.0113596 0.8198,-5.76875 1.4989,-10.95328 1.5089,-11.52117 0.01,-0.5679 2.3809,-1.12422 5.2684,-1.23629 12.1529,-0.47165 23.8158,-5.32436 30.6714,-12.76181 l 3.9173,-4.24975 0.444,8.14019 c 0.2443,4.4771 0.4832,10.25676 0.5309,12.84368 0.1515,8.20365 4.5015,13.71236 12.5669,15.91446 6.3248,1.72686 22.977,0.45867 27.275,-2.0772 l 3.4402,-2.02981 2.9747,2.1993 c 2.429,1.79581 4.6676,2.27312 12.2022,2.60168 14.3618,0.62627 22.0601,-2.55932 24.8536,-10.28452 l 1.2199,-3.37362 2.1899,4.67311 c 3.0644,6.53934 7.0319,8.68028 15.964,8.6144 10.1153,-0.0746 15.2375,-1.84395 20.1615,-6.96432 6.0762,-6.31845 6.687,-10.20886 6.0518,-38.54858 -0.2889,-12.88562 -0.9669,-25.10163 -1.5068,-27.1467 -0.8474,-3.20972 -0.7361,-3.79624 0.8137,-4.28811 2.743,-0.87062 9.5578,-8.72743 12.3511,-14.239699 7.1085,-14.02799 8.5645,-27.44911 3.5658,-32.86906 -3.5114,-3.80733 -7.9806,-5.38482 -15.2558,-5.38482 -14.2325,0 -20.9167,5.68141 -24.2358,20.59996 l -1.5801,7.10248 -7.2104,-0.10122 c -5.0917,-0.0715 -8.4391,0.45221 -11.3918,1.78217 -3.9264,1.7686 -4.3911,1.78383 -7.6234,0.25 -4.3734,-2.07532 -22.3229,-2.19359 -27.9571,-0.18421 -3.6056,1.28591 -3.8611,1.24297 -4.6074,-0.77442 -0.5515,-1.49104 0.1045,-4.23783 2.173,-9.09887 6.0731,-14.27153 0.773,-22.57589 -14.4086,-22.57589 h -6.2244 l -5.176,-5.42998 c -5.9894,-6.28342 -10.2101,-7.68989 -16.2164,-5.40387 -4.6712,1.77789 -7.5758,6.07221 -9.1617,13.54507 -1.2109,5.70613 -1.3994,5.95176 -6.6942,8.72394 -5.9162,3.09756 -9.2191,6.57517 -10.0125,10.54227 -0.499,2.4948 -0.6215,2.52571 -8.6803,2.18992 -5.916,-0.24651 -9.5556,-0.98373 -13.1742,-2.6685 -3.2637,-1.51951 -7.8506,-2.55382 -13.2086,-2.97849 -7.0204,-0.55641 -8.8806,-0.35334 -12.8506,1.4028 l -4.642,2.05338 -4.2937,-4.41783 c -5.0105,-5.15542 -11.8512,-8.85293 -19.3044,-10.43433 -5.6427,-1.19727 -17.7328,-1.31952 -22.7007,-0.22954 -2.2143,0.48581 -3.8582,0.082 -6.2765,-1.54155 -6.289,-4.22236 -25.0671,-4.46723 -31.6279,-0.41243 -2.1188,1.30951 -4.4485,4.12967 -6.0251,7.29346 -2.3047,4.62493 -2.5705,6.32688 -2.5705,16.45797 v 11.29959 l -6.2068,-5.00144 c -8.1313,-6.55234 -15.0545,-9.15972 -25.8915,-9.75125 -9.8785,-0.5392 -17.2113,1.13024 -25.6366,5.83661 -2.8791,1.60831 -5.4091,2.9242 -5.6222,2.9242 -0.213,0 -0.6634,-1.72676 -1.0009,-3.83724 -1.9493,-12.18995 -14.4753,-28.0321 -27.2516,-34.46617 -13.1434,-6.61891 -26.0973,-7.93681 -51.5865,-5.24829 -14.3877,1.51756 -18.2835,2.80331 -21.716,7.16712 -5.1413,6.53599 -5.1211,9.4444 0.4176,60.384579 2.6193,24.08925 4.4823,50.4664 4.4898,63.5685 0.01,10.60239 2.0643,17.3986396 6.4297,21.2315196 5.3809,4.72448 8.8843,5.44761 20.5783,4.24758 12.1251,-1.24427002 16.2721,-2.99605 19.8359,-8.3792 2.3903,-3.6104796 2.6608,-4.9414796 2.6608,-13.0937096 0,-4.99108 -0.346,-12.07268 -0.7689,-15.73689 l -0.7688,-6.66219 6.7688,-2.226779 c 8.3631,-2.751221 15.3458,-6.170841 21.4045,-10.482341 l 4.6356,-3.29879 0.5929,3.66615 c 1.0308,6.37395 7.1037,17.47736 13.1036,23.95798 10.1458,10.95859 25.3432,16.39443 39.5492,14.14602 7.646,-1.21012 17.1662,-5.40371 22.0982,-9.73408 l 3.5204,-3.09096 -0.4401,8.38482 c -0.5763,10.98082 0.234,14.7828896 4.0853,19.1693196 4.8978,5.57833 7.6084,6.37454 20.7193,6.08608 10.2174,-0.22481 11.8649,-0.51336 14.7726,-2.58724 z m -27.6264,-9.51009 c -1.238,-1.31784 -2.1965,-3.6165596 -2.1889,-5.2499996 0.01,-1.59813 0.2983,-28.29204 0.6466,-59.31979 l 0.6333,-56.414089 2.3359,-2.33591 c 2.1053,-2.10528 3.2335,-2.33591 11.4269,-2.33591 8.3187,0 9.2993,0.20848 11.5454,2.45454 1.35,1.35 2.4546,3.58644 2.4546,4.96987 v 2.51532 l 3.6005,-2.44342 c 4.656,-3.15966 8.5373,-3.83052 19.1963,-3.31797 7.2013,0.34628 9.6099,0.91254 13.9575,3.28137 11.995,6.53555 17.0408,21.21831 14.2757,41.540289 -2.0636,15.16603 -8.2493,24.35105 -20.208,30.00664 -7.2528,3.43001 -18.297,5.45332 -24.9497,4.57081 l -4.8723,-0.64634 -0.06,4.28445 c -0.2224,15.95399 -1.8026,33.61732 -3.2595,36.43475 -2.076,4.0144996 -3.1231,4.3496896 -13.5883,4.3496896 -7.879,0 -8.9618,-0.23189 -10.9463,-2.3443 z m 39.2355,-65.5743396 4.2421,-2.91863 5.7158,1.59091 c 3.4941,0.97254 6.0747,1.23202 6.6391,0.66759 0.5645,-0.56443 0.3252,-3.29773 -0.6154,-7.03198 l -1.5388,-6.10866 3.1658,-5.60948 c 1.7412,-3.08521 2.8919,-6.05254 2.5573,-6.59408 -0.3347,-0.541539 -3.2996,-1.289059 -6.5886,-1.661179 -5.7188,-0.64701 -6.1363,-0.8893 -9.5547,-5.54621 -1.9661,-2.6783 -4.1404,-4.86964 -4.8318,-4.86964 -0.6915,0 -2.3407,2.76286 -3.6649,6.13968 -2.2862,5.829969 -2.6725,6.240279 -7.6576,8.133919 -3.4203,1.29921 -5.25,2.57205 -5.25,3.65211 0,0.91183 2.025,3.64526 4.5,6.07429 4.2766,4.19716 4.5,4.69568 4.5,10.04154 0,8.13369 1.4298,8.82285 8.3817,4.03982 z m 42.6465,65.8254096 c -4.7798,-1.94611 -4.9463,-4.1203196 -2.0232,-26.4067696 1.082,-8.25 2.8692,-28.275 3.9714,-44.5 1.1022,-16.225 2.4743,-31.180159 3.049,-33.233679 1.4329,-5.11935 3.8301,-6.15988 12.3641,-5.36673 8.5623,0.79577 11.6105,2.53084 11.6105,6.60876 v 2.96225 l 3.25,-1.98156 c 6.2914,-3.83599 22.5172,-2.10792 29.9961,3.19462 7.2572,5.14539 10.7505,17.501749 8.7901,31.091749 -2.1301,14.76618 -8.2094,24.25956 -18.4303,28.78077 -6.3513,2.80946 -16.4231,4.11637 -22.6388,2.93759 -2.91,-0.55187 -5.3619,-0.888729 -5.4488,-0.74858 -0.087,0.14015 -0.9404,7.00481 -1.8968,15.25481 -1.0002,8.62711 -2.4575,16.48701 -3.4303,18.5 l -1.6912,3.4999996 -7.5,0.20658 c -4.125,0.11363 -8.6123,-0.24629 -9.9718,-0.79981 z m 47.3697,-58.7115596 c 0.7923,-4.66143 1.4104,-5.65148 5.25,-8.40888 2.3937,-1.71895 4.3521,-3.70512 4.3521,-4.4137 0,-0.70858 -1.9848,-2.45144 -4.4105,-3.87303 -3.8249,-2.24154 -4.5685,-3.2433 -5.6005,-7.54524 -0.6545,-2.72829 -1.6368,-5.23664 -2.1828,-5.57411 -0.546,-0.33747 -2.9467,1.30407 -5.3349,3.64787 -4.1607,4.08338 -4.5344,4.23509 -8.9435,3.63075 -5.7967,-0.79453 -6.5341,0.60545 -3.7306,7.08212 2.0134,4.65112 2.0144,4.73334 0.1172,9.7249 -1.0524,2.76876 -1.9137,5.43571 -1.9139,5.92657 -3e-4,0.49088 2.6217,0.61837 5.8272,0.28334 5.4294,-0.56749 6.0616,-0.40815 9.25,2.33159 4.7637,4.09338 6.2432,3.52502 7.3202,-2.81218 z m -287.2511,56.10541 c -2.836,-2.83591 -2.8633,-2.98177 -3.5349,-18.82933 -0.9697,-22.88491 -2.3854,-40.85804 -5.1962,-65.97129 -1.3543,-12.099999 -2.735,-27.174999 -3.0682,-33.499999 -0.5763,-10.9385 -0.4997,-11.59505 1.5694,-13.44672 4.0787,-3.65014 37.2778,-5.96564 49.2839,-3.43734 23.6574,4.98189 38.6962,28.04051 34.9064,53.521059 -2.9707,19.97376 -15.6096,32.32134 -40.3784,39.4477 -9.3864,2.70062 -9.4048,2.74209 -7.8427,17.69809 1.6287,15.59367 1.4678,19.49761 -0.9295,22.54517 -2.1305,2.7085996 -3.7565,3.1588996 -15.2042,4.2107296 -6.4666,0.59416 -6.8666,0.50097 -9.6056,-2.2380696 z m 30.9003,-71.84246 c 3.085,-2.73994 5.7762,-4.36022 6.7834,-4.08406 4.7343,1.29817 11.0462,1.63432 11.6721,0.62162 0.374,-0.60513 -0.357,-4.03783 -1.6246,-7.62823 -2.2797,-6.45766 -2.2849,-6.5783 -0.4857,-11.197739 1.0004,-2.56836 1.8839,-5.79475 1.9633,-7.16975 0.1397,-2.41973 -0.083,-2.50933 -6.9371,-2.79041 -6.9173,-0.28368 -7.1828,-0.39375 -11.4582,-4.75 -2.4072,-2.45277 -4.9407,-4.45959 -5.63,-4.45959 -1.1757,0 -2.2579,3.04379 -3.8367,10.79143 -0.5418,2.65858 -1.7112,3.87863 -6.0822,6.34546 -7.0237,3.96396 -7.019,5.77531 0.027,10.453829 4.8859,3.24407 5.5466,4.11414 6.5,8.55943 0.5836,2.72156 1.0612,5.51114 1.0612,6.19907 0,1.07653 1.8803,3.65078 2.6666,3.65078 0.1466,0 2.5679,-2.04383 5.3805,-4.54184 z m 296.2682,58.58162 c -3.5862,-1.52169 -4.3153,-4.32261 -4.3153,-16.57756 0,-6.4181 -0.499,-18.14694 -1.1089,-26.0641 -1.1931,-15.48895 -0.8871,-18.77864 1.8502,-19.89426 0.9673,-0.39421 6.8086,-0.95606 12.9808,-1.24856 11.13,-0.52744 11.2296,-0.51218 12.1192,1.85644 0.4934,1.31354 1.4504,14.93131 2.1266,30.2617 l 1.2296,27.87344 -2.1249,2.12656 c -1.8175,1.8189 -3.4595,2.16032 -11.3488,2.35993 -5.0731,0.12836 -10.2069,-0.18376 -11.4085,-0.69359 z m 37.4976,-0.70126 c -1.4711,-1.63187 -1.6874,-6.09565 -1.9252,-39.71293 -0.2574,-36.389049 -0.1925,-37.929599 1.6563,-39.281459 1.4311,-1.04641 4.6195,-1.3349 12.4401,-1.12559 l 10.5159,0.28146 0.9568,3.25 c 0.5262,1.787499 1.3206,3.249999 1.7653,3.249999 0.4448,0 3.3106,-1.66124 6.3686,-3.691639 7.7962,-5.17637 14.6572,-5.66631 22.4093,-1.60024 4.7995,2.51744 5.9122,3.706709 8.7367,9.338349 4.3435,8.66009 5.2468,15.63007 5.2557,40.55565 0.01,20.3164 -0.077,21.22863 -2.2738,24.5 -1.6665,2.48215 -3.4857,3.71307 -6.75,4.5674 -7.568,1.98068 -11.3224,1.64706 -14.0443,-1.24797 -2.4032,-2.55593 -2.4287,-2.79921 -2.9243,-27.8498 -0.5638,-28.49134 -0.5847,-28.57175 -7.4482,-28.57175 -5.0752,0 -8.2711,2.87731 -9.6115,8.65334 -0.4909,2.11566 -0.9034,13.13431 -0.9165,24.48588 -0.03,26.00576 0.3797,25.2079 -13.1993,25.6993 -8.0789,0.29236 -9.5803,0.0878 -11.0116,-1.5 z m -256.6812,-2.41613 c -9.0516,-1.77887 -18.4699,-8.16111 -23.998,-16.26192 -8.7504,-12.82301 -10.4525,-32.41926 -4.1026,-47.23317 2.506,-5.84628 10.2606,-14.034679 16.0872,-16.987249 9.5102,-4.81917 22.0611,-4.93478 31.7205,-0.29217 6.2794,3.01811 14.3605,11.466579 17.6804,18.484239 12.5787,26.58926 1.4292,56.1699 -23.3718,62.00738 -6.3074,1.48461 -7.7525,1.51377 -14.0157,0.28289 z m 13.6295,-25.18824 c 4.5608,-4.24345 5.211,-14.74784 1.6074,-25.97148 -1.8171,-5.65988 -5.3769,-8.76267 -10.0531,-8.76267 -10.5098,0 -14.5248,8.97638 -10.9023,24.37442 2.2799,9.69099 6.9703,14.20121 13.5868,13.06478 1.925,-0.33064 4.5175,-1.54791 5.7612,-2.70505 z m -8.8679,-9.42398 c -0.6067,-1.54559 -1.3424,-5.62267 -1.6351,-9.06017 -0.4405,-5.17507 -0.2689,-6.25 0.9979,-6.25 2.0319,0 2.7767,2.18261 3.4494,10.10867 0.6214,7.32245 -0.8857,10.11002 -2.8122,5.2015 z m 205.177,-31.62524 c -0.4841,-1.27328 -1.2122,-4.9721 -1.6179,-8.219579 -0.7842,-6.27641 -1.4873,-7.24845 -10.3574,-14.31882 -5.8481,-4.66162 -5.3186,-6.69307 2.905,-11.14456 5.652,-3.05952 6.6528,-4.03921 7.6717,-7.51023 0.6445,-2.19546 1.7695,-6.01287 2.5,-8.48314 1.9312,-6.53029 3.9077,-6.36663 10.4524,0.86545 0,0 3.0072,4.9054 5.4745,6.04952 2.6291,1.21919 8.6894,0.28822 8.6894,0.28822 10.551,0.34996 10.7747,0.75679 6.1734,11.22697 l -3.2107,7.30597 2.7398,8.22678 c 2.4324,7.3039 2.5719,8.39465 1.2433,9.723179 -1.2656,1.2656 -2.4016,1.31681 -7.3651,0.33199 -3.2278,-0.64043 -6.5625,-1.359009 -7.4105,-1.596839 -0.852,-0.23896 -4.1881,1.805189 -7.4567,4.568869 -6.521,5.51374 -9.1034,6.17873 -10.4312,2.68622 z m 110.5419,-6.5609 c -2.4461,-2.702929 -3.0154,-7.988089 -1.6839,-15.633939 2.4745,-14.20956 5.4772,-17.70991 15.3425,-17.88525 5.0969,-0.0906 6.1643,0.22316 7.857,2.30949 2.3264,2.86733 2.0212,5.00264 -2.3485,16.43324 -5.1336,13.42886 -14.1183,20.355369 -19.1671,14.776459 z m 87.4936,100.8523996 c 11.2699,-2.51033 14.2273,-4.01162 17.4268,-8.84645 3.8645,-5.8395696 4.1271,-11.8042696 1.0771,-24.4606296 -1.4354,-5.9562 -2.6097,-11.40008 -2.6097,-12.09752 0,-0.697449 1.9125,-2.11113 4.25,-3.14152 2.3375,-1.03039 6.3875,-3.11205 9,-4.62592 l 4.75,-2.7525 v 7.86872 c 0,15.92762 6.6222,27.98259 18.22048,33.16823 4.46903,1.99812 6.8912,2.35916 15.77943,2.35205 7.744,-0.006 11.5185,-0.45977 14.38036,-1.72808 3.22237,-1.42809 4.57892,-1.53077 8,-0.60554 5.36938,1.45215 17.81635,0.33356 22.51748,-2.02361 3.48312,-1.74646 3.7013,-1.74481 6.60216,0.0498 2.43611,1.50712 5.02994,1.85697 13.79966,1.86125 11.7203,0.006 14.308,-0.77156 18.82815,-5.65546 4.82573,-5.21406 5.24178,-6.98807 5.82546,-24.83928 0.45936,-14.04893 0.8735,-17.52078 2.38569,-20 2.89135,-4.74032 6.28217,-6.6469 13.38886,-7.52825 3.9548,-0.49047 7.6589,-1.62088 9.30916,-2.84097 l 2.74083,-2.02638 -0.50083,18.6978 c -0.46307,17.28849 -0.34228,19.11235 1.60265,24.1978 5.25848,13.74953 18.44201,20.69488 37.57529,19.79542 12.14848,-0.5711 16.74535,-2.88069 20.10789,-10.10277 1.32971,-2.85596 2.42205,-5.94335 2.42742,-6.86086 0.005,-0.91752 0.28182,-2.37716 0.61432,-3.24365 0.52888,-1.37825 0.97002,-1.3152 3.52447,0.50373 l 2.91991,2.07916 -3.23875,5.66074 c -5.59575,9.78036 -3.84723,19.5121096 4.25893,23.7039696 4.49974,2.32689998 21.94067,5.64701 25.88438,4.92742 4.2714,-0.77937 9.99432,-3.63872002 12.22254,-6.10675 0.92181,-1.02103 12.57815,-22.7814096 25.90298,-48.3564096 26.51574,-50.892989 27.17973,-52.616189 23.11942,-59.999999 -2.63023,-4.78318 -6.78576,-6.96363 -17.547,-9.20712 -16.01154,-3.33805 -23.76749,-0.12955 -30.38659,12.57039 -0.80928,1.55275 -1.06243,1.18248 -1.51905,-2.22191 -0.80242,-5.98242 -4.35694,-11.08181 -9.22584,-13.23556 -6.12727,-2.71038 -22.13601,-3.67282 -26.19328,-1.57473 -3.64762,1.88626 -8.09966,6.91629 -8.88261,10.03579 -0.50065,1.99476 -1.01778,2.15955 -5.24971,1.67293 -5.19778,-0.59768 -4.9134,0.21913 -3.5597,-10.22425 0.76614,-5.91056 -2.30681,-12.83177 -6.97934,-15.71956 -3.60608,-2.22868 -13.4048,-4.07711 -21.67318,-4.08843 -9.66506,-0.0132 -15.20756,5.5697 -17.99744,18.12871 -1.23257,5.54863 -1.31404,5.64458 -5.23932,6.17107 -2.60793,0.34979 -5.08621,1.59992 -7.16393,3.61374 -2.79645,2.71045 -3.86214,3.07896 -8.90403,3.07896 -3.15006,0 -8.19113,0.86594 -11.20239,1.92431 -3.01126,1.05838 -5.47502,1.50176 -5.47502,0.9853 0,-0.51645 -1.4625,-1.83071 -3.25,-2.92057 -2.77307,-1.69077 -5.05237,-1.98211 -15.53212,-1.9853 -13.90185,-0.004 -18.28629,1.21098 -20.91885,5.79795 l -1.65565,2.88481 -5.62156,-5.74508 c -6.51977,-6.66303 -11.65415,-8.67563 -24.52182,-9.61218 -8.84448,-0.64373 -18.40317,1.21173 -23.97151,4.65315 l -3.13508,1.93759 -1.25556,-4.70999 c -5.76016,-21.60817 -28.34516,-38.15181 -52.13776,-38.1912 -12.3135,-0.0204 -42.1933,6.07994 -48.2989,9.86077 -6.2199,3.85166 -8.9492,12.54046 -6.8396,21.77445 0.6089,2.6653 4.478,19.25853 8.598,36.873869 4.1199,17.61533 9.0697,41.24033 10.9994,52.5 4.4923,26.21242 5.1264,28.7397296 8.2332,32.8128596 2.6992,3.53892998 9.2194,7.0999 13.0684,7.1373 1.2434,0.0121 6.3487,-0.88865 11.3453,-2.00161 z m -16.0225,-10.73921 c -2.0422,-2.0422796 -2.9509,-4.1937796 -3.4841,-8.2499996 -1.8607,-14.15303 -8.3489,-46.37886 -15.1625,-75.30887 -9.8323,-41.746999 -10.1076,-44.178599 -5.2935,-46.754989 5.9957,-3.2088 31.5888,-7.92705 42.8568,-7.9009 27.8328,0.0646 46.38609,21.34586 44.8088,51.397109 -0.3796,7.23157 -0.9815,9.54515 -4.1534,15.96294 -5.0195,10.15625 -11.7877,16.12416 -26.5012,23.36749 -6.2401,3.07198 -11.5803,6.19673 -11.867,6.9439 -0.2867,0.74717 0.7345,6.8592 2.2693,13.5823 1.5349,6.72309 2.9793,13.853 3.2098,15.84424 0.5194,4.48729 -1.9956,9.66479 -5.0345,10.36436 -18.8303,4.3348196 -18.0917,4.3091496 -21.6485,0.7524196 z m 283.66033,0.78929 c -12.04591,-2.7831396 -13.04898,-4.6742096 -7.43998,-14.0265096 1.81423,-3.025 4.75663,-8.06222 6.53868,-11.19382 l 3.24008,-5.69383 -3.40946,0.55328 c -7.6516,1.24169 -14.67304,-6.020229 -14.67304,-15.17559 0,-2.13317 1.148,-15.8286 2.55112,-30.43427 3.14619,-32.750169 2.60908,-31.590379 14.57648,-31.475169 14.27177,0.1374 15.5604,2.1821 11.56196,18.345579 -3.66845,14.8295 -4.85458,22.62851 -4.49779,29.57382 0.29249,5.69352 0.44688,6.01599 3.02271,6.31299 2.6108,0.30104 3.17479,-0.60701 14.76589,-23.77375 14.61219,-29.204909 13.76326,-28.434659 28.27364,-25.653049 10.41089,1.99574 11.74599,2.74118 11.74599,6.55818 0,1.57281 -9.94998,21.868369 -23.83986,48.627559 -28.40957,54.7317196 -25.41589,51.3824596 -42.41642,47.4545796 z M -990.31801,-21.952941 c -5.30202,-2.01876 -10.32839,-6.67528 -12.53149,-11.60933 -2.7427,-6.14282 -2.9614,-19.45579 -0.4382,-26.68055 4.0378,-11.56167 17.38498,-18.39709 35.98081,-18.42667 4.51468,-0.007 4.74972,-0.14379 4.74442,-2.75755 -0.01,-4.72869 -1.99572,-10.18033 -4.12382,-11.31925 -2.42577,-1.29824 -2.57584,-1.17337 -5.83486,4.8547 -2.95921,5.47356 -5.32663,6.82228 -13.60553,7.75112 -7.37848,0.82781 -9.43021,-0.60173 -9.43021,-6.57049 0,-9.75746 7.18554,-20.359079 15.87573,-23.423209 5.12144,-1.80581 14.88887,-2.00117 22.15389,-0.4431 11.79946,2.53053 18.4204,14.829699 20.94093,38.900229 1.27134,12.14095 1.32118,40.1025 0.0773,43.3741 -1.28612,3.38275 -3.88796,4.59284 -11.37932,5.29239 -7.07808,0.66096 -10.66853,-0.58481 -10.66853,-3.70167 0,-2.36882 -1.28349,-2.53309 -3.06066,-0.39173 -0.71805,0.8652 -3.13565,2.51789 -5.37244,3.67266 -4.93682,2.54867 -18.2938,3.39513 -23.32802,1.47835 z m 18.07161,-16.4741 c 1.13267,-3.92422 2.0941,-5.15419 5.53026,-7.074919 4.95836,-2.771611 5.18745,-4.136491 1.09961,-6.551241 -3.33421,-1.96957 -4.94036,-5.11951 -4.94036,-9.68894 0,-3.61935 -1.15309,-3.68265 -5.5797,-0.30631 -2.89196,2.20581 -4.17049,2.54696 -7.94908,2.12106 -2.47655,-0.27915 -4.72753,-0.14396 -5.00217,0.30042 -0.27464,0.44438 0.0495,2.86004 0.72032,5.36814 1.09511,4.0945 1.001,5.01026 -0.92161,8.967561 -1.1777,2.424059 -1.86973,4.678919 -1.53785,5.010809 0.33188,0.33188 2.69423,0.60342 5.24967,0.60342 3.85711,0 5.13439,0.50952 7.52042,3 1.5808,1.65 3.22637,3 3.65683,3 0.43046,0 1.39961,-2.1375 2.15366,-4.75 z m 46.56195,13.09542 c -1.91746,-2.31163 -1.37472,-76.134519 0.57468,-78.167059 1.74547,-1.8199 19.43588,-2.84653 22.33298,-1.29605 1.58505,0.84829 2.33083,2.47321 2.81692,6.137509 l 0.66112,4.98376 3.12093,-1.92289 c 6.2479,-3.84949 13.21532,-6.887369 17.33462,-7.558109 3.67424,-0.59827 4.5384,-0.3614 6.75,1.8502 2.25469,2.254689 2.53631,3.351909 2.53631,9.881759 0,4.3798 -0.48449,7.82995 -1.2,8.54546 -0.66,0.66 -3.14945,1.2 -5.53212,1.2 -8.41137,0 -16.30567,5.01708 -20.84189,13.24567 -2.80133,5.08154 -2.9135,5.81901 -3.41128,22.42579 -0.4931,16.45052 -0.61649,17.27972 -2.93902,19.75 -2.26491,2.40899 -3.02947,2.57854 -11.62756,2.57854 -7.34314,0 -9.48063,-0.33441 -10.57569,-1.65458 z m 87.95393,0.67554 c -5.07126,-1.53096 -10.36796,-5.13809 -12.84355,-8.74663 -2.34213,-3.41402 -2.50002,-4.5018 -2.78633,-19.19671 -0.16693,-8.56769 0.0831,-19.54879 0.55553,-24.40244 1.01102,-10.386 0.54768,-11.39251 -5.73675,-12.46206 -5.48433,-0.93338 -6.61333,-3.27086 -5.57886,-11.550449 0.86492,-6.92258 2.44179,-8.65804 7.88502,-8.67798 2.29821,-0.008 4.76256,-0.38576 5.47633,-0.83854 0.71376,-0.45277 2.51412,-5.23508 4.0008,-10.62736 3.54713,-12.86573 4.94554,-14.05606 14.75719,-12.56134 14.20884,2.16459 14.05916,1.96169 11.92576,16.16568 -0.84451,5.6226 -1.16179,10.59659 -0.70508,11.0533 0.45671,0.45671 4.63135,1.30442 9.27698,1.8838 8.14668,1.01601 12.94659,2.87245 12.94659,5.007309 0,3.08032 -3.45224,14.06289 -4.76226,15.15011 -0.98846,0.82035 -4.05501,1.19276 -8.63526,1.04869 -3.90636,-0.12288 -7.86081,0.013 -8.78765,0.30193 -4.7572,1.48305 -9.21718,30.76406 -5.46704,35.89268 1.37356,1.878451 3.67407,1.880621 12.30154,0.0116 4.19958,-0.90979 4.89681,1.360941 3.30876,10.77593 -0.93431,5.53921 -1.8384,7.7857 -4.00546,9.95275 -2.65922,2.65922 -3.23896,2.7945 -11.62571,2.71284 -4.8548,-0.0473 -10.03005,-0.44917 -11.50055,-0.89309 z m 20.63501,-38.52096 c 1.16612,-10.58367 0.99734,-10.34064 7.1432,-10.28542 l 5.42937,0.0488 -0.56675,5.11832 c -1.3385,12.08811 -0.79519,11.23029 -7.07536,11.17105 l -5.59155,-0.0527 0.66109,-6 z"
           id="path889-8"
           sodipodi:nodetypes="ssssscsscsssssssssssssssssssssssssssssscssssssscsssssssssssssssssscssscssssssssssssscssssssssssssssssssscccssssssssssscssssssssssscsssssssssscsssscssscsssssssssscssssssscssssssssscssssssscssssssssssssssscsscsssscssssscscsssscsssssscsssssscssscssssssssssssssssscsssssssscssssssssssssssssssssssssssssssssssssssssssssssssssscssssssscssssscsssssssssssssssssssssssssssssssssssssscsssssssssssssssssscsscsssscssssscsssscsscssssssssssssssssssssssscscssscssssssssssssssssssssssssscsssssssssssssssccssssssssssssssssssssssssssssssscssssssssssssssssscssssssssssssssssssscssccs" />
        <path
           style="font-variation-settings:normal;opacity:1;vector-effect:none;fill:#f96846;fill-opacity:1;stroke-width:0.109731;stroke-linecap:butt;stroke-linejoin:miter;stroke-miterlimit:4;stroke-dasharray:none;stroke-dashoffset:0;stroke-opacity:1;stop-color:#000000;stop-opacity:1"
           d="m -1053.6315,-79.839549 c -0.3693,-1.36203 -1.0731,-4.27544 -1.5641,-6.47424 -0.491,-2.1988 -3.2291,-5.98417 -6.3008,-8.84434 -0.8778,-0.81729 -2.4016,-1.35839 -3.1995,-1.97328 -1.6623,-1.28106 -2.4922,-2.71921 -2.6075,-3.663121 -0.2075,-1.69955 1.686,-3.10672 6.5481,-5.97165 3.2799,-1.93259 4.7433,-5.19122 5.8798,-9.70482 0.4325,-1.71763 0.5047,-3.64904 1.2703,-4.86541 0.2471,-0.39252 0.3914,-1.12303 0.5771,-1.39978 0.539,-0.8034 0.9343,-0.73885 1.3354,-0.70596 1.0072,0.0826 4.0879,2.70637 6.3248,5.04128 3.5199,3.67392 5.0791,4.24528 11.5855,4.24528 4.1351,0 7.5183,0.62391 7.5183,1.38646 0,0.76255 -1.0542,4.02108 -2.3426,7.24118 -2.1808,5.45051 -2.1804,6.307361 0.01,12.410711 1.2923,3.6058 2.3465,7.1146 2.3426,7.79735 0,0.68275 -3.1702,0.93742 -7.0363,0.56594 -6.1776,-0.59359 -7.5921,-0.19375 -11.6745,3.30018 -3.3749,2.88841 -5.5473,4.58511 -6.9309,4.28278 -0.8339,-0.18222 -1.3813,-2.66856 -1.7327,-2.66856 z"
           id="path1037"
           sodipodi:nodetypes="ssssssssssssssscsssss" />
        <path
           style="font-variation-settings:normal;opacity:1;vector-effect:none;fill:#e6378d;fill-opacity:1;stroke-width:0.0274328;stroke-linecap:butt;stroke-linejoin:miter;stroke-miterlimit:4;stroke-dasharray:none;stroke-dashoffset:0;stroke-opacity:1;stop-color:#000000;stop-opacity:1"
           d="m -816.07667,-57.254571 -1.69908,-0.133265 0.19814,-1.483393 c 0.10898,-0.815865 0.44139,-3.552967 0.7387,-6.082448 1.00782,-8.574455 0.88831,-8.437549 7.29741,-8.360128 2.56672,0.03101 4.73671,0.126318 4.8222,0.211806 0.28098,0.280987 -1.37969,13.431806 -1.8093,14.327737 -0.23086,0.481443 -0.81774,1.07666 -1.30417,1.322705 -0.84439,0.427098 -4.26728,0.508887 -8.2439,0.196986 z"
           id="path1045" />
        <path
           style="font-variation-settings:normal;vector-effect:none;fill:#f4a031;fill-opacity:1;stroke-width:0.0801195;stroke-linecap:butt;stroke-linejoin:miter;stroke-miterlimit:4;stroke-dasharray:none;stroke-dashoffset:0;stroke-opacity:1;stop-color:#000000"
           d="m -991.57093,-42.486912 c 0.42955,-0.926 1.3977,-2.867226 2.15128,-4.31386 0.75348,-1.446614 0.9696,-4.805682 0.55998,-7.803926 -0.11709,-0.856774 -0.73309,-1.856576 -0.89971,-2.564261 -0.3471,-1.474378 -0.14488,-2.654022 0.23316,-3.231226 0.68075,-1.039234 2.4242,-0.95194 6.54903,-0.312106 2.78252,0.431655 5.15099,-0.706812 7.92291,-2.692357 1.05485,-0.755587 2.00441,-1.795253 3.0138,-2.119558 0.32577,-0.104638 0.75175,-0.444177 0.98798,-0.512681 0.68574,-0.198909 0.88118,0.01835 1.09486,0.220673 0.53651,0.508073 1.06246,3.379135 1.24225,5.702536 0.28296,3.655914 0.90493,4.688777 4.62177,7.67448 2.36221,1.897546 4.00145,3.796604 3.64284,4.220162 -0.35862,0.423556 -2.49329,1.749744 -4.74367,2.947113 -3.8091,2.026735 -4.21183,2.502856 -5.83088,6.898099 -0.95754,2.595857 -2.00546,5.028573 -2.32877,5.406016 -0.3211,0.379233 -2.25186,-0.934077 -4.28567,-2.914522 -3.24984,-3.164534 -4.24591,-3.591541 -8.22115,-3.524206 -3.28633,0.05566 -5.32524,0.0012 -5.97346,-0.801639 -0.39064,-0.483888 0.46595,-2.116118 0.26514,-2.277357 z"
           id="path1037-9"
           sodipodi:nodetypes="ssssssssssssssscsssss" />
        <path
           style="font-variation-settings:normal;vector-effect:none;fill:#63b7e0;fill-opacity:1;stroke-width:0.0925122;stroke-linecap:butt;stroke-linejoin:miter;stroke-miterlimit:4;stroke-dasharray:none;stroke-dashoffset:0;stroke-opacity:1;stop-color:#000000"
           d="m -1299.8111,-68.870188 c 0.2922,-1.117269 0.9811,-3.463363 1.5301,-5.213533 0.549,-1.750145 0.1063,-5.726269 -0.9634,-9.240812 -0.3059,-1.004307 -1.1995,-2.148841 -1.5304,-2.974387 -0.6891,-1.719933 -0.7032,-3.123503 -0.3973,-3.826251 0.5505,-1.265268 2.5209,-1.262019 7.2712,-0.743055 3.2044,0.350139 5.6251,-1.128809 8.3249,-3.630402 1.0274,-0.951976 1.8789,-2.233134 2.9433,-2.673582 0.3437,-0.142123 0.7516,-0.567156 1.0022,-0.66151 0.7274,-0.273953 0.9907,-0.02877 1.271,0.197751 0.7046,0.568823 2.4096,3.926636 3.0844,6.658003 1.0621,4.297847 2.0134,5.038834 6.7849,8.34932 3.0325,2.103959 4.6806,4.693297 4.3651,5.213624 -0.3153,0.520329 -2.4357,2.207408 -4.7121,3.749102 -3.8532,2.609561 -4.2072,3.194427 -5.1246,8.473538 -0.5434,3.117954 -1.2212,6.048567 -1.5063,6.512455 -0.2824,0.465882 -2.7125,-0.973364 -5.394,-3.193942 -4.2848,-3.548233 -5.4876,-3.995109 -9.9261,-3.688172 -3.6694,0.253751 -5.964,0.306128 -6.8537,-0.604114 -0.5359,-0.548648 0.091,-2.523738 -0.1671,-2.702499 z"
           id="path1037-9-3"
           sodipodi:nodetypes="ssssssssssssssscsssss" />
        <path
           style="font-variation-settings:normal;vector-effect:none;fill:#a77ff4;fill-opacity:1;stroke-width:0.109731;stroke-linecap:butt;stroke-linejoin:miter;stroke-miterlimit:4;stroke-dasharray:none;stroke-dashoffset:0;stroke-opacity:1;stop-color:#000000"
           d="m -1377.1074,-69.400407 c -0.1508,-1.36203 -0.3874,-4.27544 -0.5257,-6.47424 -0.1384,-2.1988 -1.0312,-6.2495 -3.6442,-9.10967 -0.7467,-0.81729 -3.4219,-1.09306 -4.1212,-1.70795 -1.4568,-1.28106 -2.0561,-2.71921 -2.02,-3.663121 0.065,-1.69955 1.4768,-3.814267 6.7983,-6.679197 3.5899,-1.93259 6.2834,-4.483675 8.1438,-8.997275 0.708,-1.71763 1.0899,-3.64904 2.0506,-4.86541 0.3101,-0.39252 0.5715,-1.12303 0.8016,-1.39978 0.6679,-0.8034 1.0528,-0.73885 1.4486,-0.70596 0.994,0.0826 3.6539,2.70637 5.5163,5.04128 2.9307,3.67392 4.3982,4.24528 10.9046,4.24528 4.1351,0 7.4183,0.62391 7.296,1.38646 -0.1223,0.76255 -1.6991,4.021082 -3.504,7.241182 -3.0549,5.45051 -3.1919,6.307361 -1.9804,12.410711 0.714,3.6058 2.5912,10.112786 2.4778,10.795536 -0.1095,0.68275 -4.7063,-2.060766 -8.5128,-2.432246 -6.0824,-0.59359 -7.561,-0.19375 -12.2038,3.30018 -3.8381,2.88841 -6.2827,4.58511 -7.6178,4.28278 -0.8046,-0.18222 -0.9533,-2.66856 -1.3047,-2.66856 z"
           id="path1037-7"
           sodipodi:nodetypes="ssssssssssssssscsssss" />
        <path
           style="font-variation-settings:normal;vector-effect:none;fill:#ef6aa0;fill-opacity:1;stroke-width:0.112307;stroke-linecap:butt;stroke-linejoin:miter;stroke-miterlimit:4;stroke-dasharray:none;stroke-dashoffset:0;stroke-opacity:1;stop-color:#000000"
           d="m -1542.2715,-81.033316 c -0.3144,-1.346677 -0.8979,-4.236945 -1.2968,-6.422822 -0.3989,-2.185866 -1.406,-5.140163 -4.4384,-7.709058 -0.8665,-0.734054 -4.0492,-1.709008 -4.8433,-2.245763 -1.6541,-1.118285 -2.4406,-2.490584 -2.5132,-3.439721 -0.1307,-1.70895 1.0817,-3.9855 6.2459,-7.4542 3.4838,-2.33991 5.6601,-5.15372 7.0567,-9.88267 0.5315,-1.79959 1.0109,-3.82065 1.8617,-5.14687 0.2747,-0.42798 0.4597,-1.18887 0.6653,-1.49191 0.5965,-0.87973 1.0016,-0.85851 1.4143,-0.87023 1.0366,-0.0294 4.09,2.29748 6.2859,4.42515 3.4554,3.3478 5.038,3.75431 11.7598,3.02036 4.2721,-0.46645 6.1866,2.5296 6.1491,3.30688 -0.037,0.77727 0.1336,2.22636 -1.3562,5.65399 -2.5217,5.80175 -2.4345,5.92462 -0.4725,11.898747 1.1574,3.529647 1.9527,11.601669 1.915,12.298043 -0.033,0.695933 -3.2447,-0.117289 -7.2206,-0.05983 -2.3295,0.03367 -4.671,-0.869381 -6.074,-0.560989 -2.4232,0.532625 -1.9987,-0.0028 -4.7788,2.54431 -3.629,3.324915 -6.4878,5.830071 -7.9024,5.677979 -0.8524,-0.09168 -2.0913,-3.581372 -2.4544,-3.541733 z"
           id="path1037-7-4"
           sodipodi:nodetypes="ssssssssssssssscssssss" />
        <g
           id="g1261"
           transform="translate(-0.0763,-0.03214)">
          <g
             id="g1279">
            <path
               style="font-variation-settings:normal;opacity:1;vector-effect:none;fill:#e6368c;fill-opacity:1;stroke-width:0.00685819;stroke-linecap:butt;stroke-linejoin:miter;stroke-miterlimit:4;stroke-dasharray:none;stroke-dashoffset:0;stroke-opacity:1;stop-color:#000000;stop-opacity:1"
               d="m -1590.7352,-90.013162 c -0.093,-0.289293 -1.9962,-19.313948 -2.6527,-26.522318 -1.3552,-14.8794 -1.6233,-21.32057 -1.025,-24.62461 1.0011,-5.52803 3.8077,-10.76043 7.8549,-14.64422 2.2154,-2.12596 4.9308,-3.90968 7.5043,-4.92965 3.9162,-1.55213 15.906,-3.02188 30.5472,-3.74462 3.0841,-0.15224 14.1473,-0.15202 16.4947,3.2e-4 5.0337,0.32669 8.5167,0.77389 12.2064,1.56724 7.9227,1.70356 15.1328,5.12489 23.1998,11.00874 4.368,3.18589 8.6234,7.52984 12.6938,12.95781 2.5682,3.42471 4.5607,6.75342 5.9823,9.9941 0.256,0.58373 0.7969,1.75003 1.2018,2.59177 l 0.7364,1.53046 0.3359,-0.0573 c 0.8469,-0.1445 2.6822,-0.59695 4.0947,-1.00944 0.8513,-0.2486 2.4233,-0.705 3.4935,-1.01421 10.9772,-3.17179 22.0755,-3.19961 31.6627,-0.0794 1.8114,0.5895 3.312,1.19119 6.1911,2.48235 1.4107,0.63263 2.7539,1.23247 2.985,1.33299 l 0.4201,0.18277 v 5.01071 5.01071 l -0.2433,-0.16349 c -2.1753,-1.46225 -3.3342,-2.15631 -5.0633,-3.03259 -5.5889,-2.83222 -11.4611,-4.11181 -19.7671,-4.30736 -7.6032,-0.17899 -13.8431,1.15383 -20.4747,4.37332 -0.7053,0.34242 -2.2376,1.14773 -3.4051,1.78957 -2.7142,1.49223 -4.9501,2.64983 -5.1182,2.64983 -0.2576,0 -0.618,-1.30492 -1.0746,-3.89151 -0.5682,-3.21824 -1.6631,-6.37293 -3.4074,-9.81722 -4.64,-9.16245 -12.8894,-18.13785 -21.3269,-23.20372 -4.3877,-2.63438 -10.5519,-5.05213 -15.9323,-6.24901 -4.9044,-1.09101 -9.2688,-1.55189 -15.6258,-1.65009 -6.3465,-0.098 -13.1986,0.2953 -22.73,1.30479 -13.2471,1.40304 -17.4868,2.67185 -20.6628,6.18364 -1.7928,1.98248 -3.1375,4.17199 -3.6936,6.01415 -1.6469,5.4564 -1.1375,14.62216 2.819,50.7189 0.1224,1.116944 0.2226,2.101982 0.2226,2.188974 0,0.14971 -0.2248,0.158168 -4.2039,0.158168 -3.285,0 -4.2116,-0.02416 -4.2395,-0.110554 z"
               id="path1240" />
            <path
               style="font-variation-settings:normal;opacity:1;vector-effect:none;fill:#e6368c;fill-opacity:1;stroke-width:0.00484947;stroke-linecap:butt;stroke-linejoin:miter;stroke-miterlimit:4;stroke-dasharray:none;stroke-dashoffset:0;stroke-opacity:1;stop-color:#000000;stop-opacity:1"
               d="m -1586.5363,-37.549115 c -0.019,-0.214978 -0.065,-1.038147 -0.1021,-1.829264 -0.3104,-6.682865 -1.0265,-17.994478 -1.6251,-25.672229 -0.4298,-5.511372 -0.6033,-7.370352 -1.2811,-13.727294 -0.2897,-2.717316 -0.6681,-6.291416 -0.8409,-7.942443 -0.1728,-1.651028 -0.3296,-3.100368 -0.3484,-3.220755 -0.025,-0.158276 -0.017,-0.19291 0.028,-0.125078 0.054,0.08145 0.5922,0.09614 4.083,0.11153 2.2113,0.0097 4.0819,0.0026 4.157,-0.01579 0.089,-0.02193 0.1456,-0.0929 0.1626,-0.205339 0.017,-0.112894 0.029,-0.07531 0.036,0.109596 0.01,0.154784 0.136,1.458819 0.2908,2.897857 1.8223,16.942628 3.3703,35.913293 4.0082,49.118894 l 0.043,0.89118 h -4.2878 -4.2877 z"
               id="path1242" />
            <path
               style="font-variation-settings:normal;opacity:1;vector-effect:none;fill:#e6368c;fill-opacity:1;stroke-width:0.0137164;stroke-linecap:butt;stroke-linejoin:miter;stroke-miterlimit:4;stroke-dasharray:none;stroke-dashoffset:0;stroke-opacity:1;stop-color:#000000;stop-opacity:1"
               d="m -1401.8282,12.843884 c -7.1362,-0.621455 -12.0444,-2.759696 -16.7596,-7.3012538 -4.0837,-3.9333184 -5.9419,-7.213309 -7.6695,-13.5378238 -0.6672,-2.4422584 -1.0176,-3.4451334 -1.2466,-3.5676934 -0.4832,-0.258626 -2.2768,0.08886 -5.1426,0.996313 -8.2238,2.604032 -14.7576,3.3437725 -22.4246,2.5388563 -13.9182,-1.4611911 -27.349,-8.7553603 -36.7731,-19.9711453 -3.3707,-4.011534 -5.485,-7.293175 -8.3403,-12.945255 l -1.7589,-3.481811 -3.9371,1.912333 c -4.5015,2.186506 -6.9009,3.226488 -11.3816,4.933349 l -3.1687,1.207031 0.029,0.87055 c 0.016,0.478801 0.2318,2.42273 0.48,4.319841 1.7865,13.654219 0.1942,23.2016798 -5.0485,30.27260021 -2.4404,3.29132719 -6.4182,6.45508019 -9.8896,7.86562149 -2.4701,1.003691 -7.5719,2.0584617 -13.2552,2.7404487 -4.3657,0.5238666 -12.4671,0.6710836 -14.9849,0.272303 -8.115,-1.2852824 -15.7907,-7.0030294 -19.505,-14.5295112 -1.8964,-3.8427594 -2.1548,-5.1054392 -2.8227,-13.7971702 -0.3822,-4.972832 -0.8079,-11.834241 -1.0014,-16.140919 l -0.1212,-2.697524 h 4.2614 4.2613 l 0.054,-0.751769 c 0.066,-0.905832 0.2843,4.947738 0.5008,13.399175 0.2033,7.938265 0.6092,10.94046 2.0054,14.833084 1.2328,3.4369157 3.1584,6.0076061 6.195,8.2700484 4.3428,3.2357051 8.5728,3.8394021 19.036,2.7167794 12.3665,-1.32683133 16.4667,-3.2392818 20.1268,-9.3876686 1.8093,-3.0392462 2.0848,-5.0484642 1.9257,-14.0442722 -0.1227,-6.936716 -0.3217,-10.186521 -0.984,-16.070441 -0.3309,-2.939142 -0.425,-4.329254 -0.2962,-4.376049 0.1038,-0.03772 2.2584,-0.751908 4.7878,-1.587085 10.7698,-3.555932 16.7141,-6.458679 24.4362,-11.932794 1.7809,-1.262483 3.3012,-2.295423 3.3784,-2.295423 0.077,0 0.3213,1.071887 0.5424,2.381971 0.6572,3.892242 1.5813,6.564418 3.7947,10.972982 5.7799,11.511997 13.1001,19.248329 22.6832,23.972764 6.1935,3.053334 11.7937,4.481433 18.4847,4.71377 5.1968,0.180451 9.4271,-0.44103 14.5932,-2.143916 6.9506,-2.291135 11.8887,-5.005238 16.5389,-9.09023 2.1758,-1.911368 2.212,-1.934117 2.2666,-1.427068 0.03,0.283396 -0.069,2.829213 -0.2211,5.657374 -0.7697,14.3082898 0.01,17.5286271 5.5542,22.98122086 2.4568,2.41558374 4.2498,3.37202124 7.4927,3.99671994 3.3967,0.6543378 18.3777,0.4710637 21.99,-0.2690201 4.9033,-1.004579 8.8746,-5.2719958 11.0351,-11.8579563 1.8474,-5.6313834 2.4699,-11.6366464 2.4713,-23.8420314 0,-3.915831 0.058,-7.119693 0.1269,-7.119693 0.5201,0 10.9949,-1.702173 12.6098,-2.049114 4.9891,-1.071857 9.5137,-2.606025 13.3549,-4.528378 2.1734,-1.087682 2.4557,-1.254458 5.2346,-3.092805 1.5958,-1.055706 2.3839,-1.473571 2.7791,-1.473571 1.252,0 1.2003,1.399267 -0.576,15.566037 -1.4364,11.455854 -1.8626,15.892738 -1.9916,20.734734 -0.098,3.672288 -0.084,3.895033 0.3,5.0412736 1.5918,4.7448697 5.5189,9.02090803 9.8156,10.6876769 4.9512,1.9206563 16.1655,2.5038502 21.6065,1.1236327 6.0804,-1.54243518 9.3317,-5.6171286 11.5725,-14.5035902 0.8927,-3.540271 2.1179,-11.225995 3.0958,-19.419738 0.1055,-0.883905 0.1898,-1.058519 0.6185,-1.280174 0.6652,-0.344021 3.1788,-0.740821 5.5639,-0.87835 10.6296,-0.612924 20.7346,-4.475206 27.7366,-10.601308 0.5646,-0.494043 2.147,-2.115191 3.5162,-3.602551 1.3692,-1.487359 2.515,-2.678818 2.5461,-2.647687 0.093,0.0927 0.5802,9.047377 0.7824,14.373204 0.3761,9.904115 0.5987,11.416044 2.1352,14.504717 l 0.7039,1.415094 -0.049,5.539262 -0.049,5.5392609 -1.6804,-1.3941479 c -5.1723,-4.291137 -8.2201,-9.78705 -9.4549,-17.04944 -0.493,-2.8995 -0.6932,-3.478787 -1.251,-3.618782 -0.2449,-0.06145 -1.6336,0.399122 -3.8017,1.260786 -5.9474,2.363704 -9.4827,3.398469 -16.0463,4.69662 l -3.7555,0.742769 -0.091,0.549856 c -0.05,0.30242 -0.2568,2.181635 -0.4588,4.176033 -0.9862,9.7369055 -3.0501,16.1433985 -6.9969,21.7195193 -1.1523,1.6278521 -4.2898,4.7134423 -5.9336,5.8353662 -2.8945,1.9755195 -6.7982,3.5842145 -9.5165,3.9217375 -1.9135,0.237593 -7.0248,0.239284 -10.0961,0.0033 -7.4761,-0.574351 -13.3101,-1.792206 -16.2647,-3.3952975 -6.5455,-3.5514516 -10.4412,-8.49234903 -12.1759,-15.4426663 -0.7379,-2.956599 -0.8254,-3.9207422 -0.8189,-9.0158192 0.01,-4.405261 0.061,-5.353728 0.498,-8.579009 0.5333,-3.933991 0.9075,-7.086572 1.0971,-9.242335 l 0.1205,-1.370873 h -0.5642 c -1.2701,0 -10.0661,2.182594 -13.3325,3.308263 -1.6267,0.560593 -1.7397,0.713961 -2.1341,2.895925 -0.379,2.096565 -0.5973,4.23878 -0.9056,8.883601 -0.5803,8.742115 -1.6956,13.8037396 -4.1394,18.786032 -2.4923,5.0811368 -6.4137,9.0588202 -11.4245,11.588636 -2.6938,1.360043 -6.5861,2.185409 -12.4616,2.642538 -2.7256,0.212057 -9.553,0.206448 -12.0372,-0.0099 z"
               id="path1244" />
            <path
               style="font-variation-settings:normal;opacity:1;vector-effect:none;fill:#e6368c;fill-opacity:1;stroke-width:0.00969895;stroke-linecap:butt;stroke-linejoin:miter;stroke-miterlimit:4;stroke-dasharray:none;stroke-dashoffset:0;stroke-opacity:1;stop-color:#000000;stop-opacity:1"
               d="m -1172.0016,-112.19258 c -0.5037,-0.17159 -1.19,-0.45088 -1.525,-0.62066 -1.3733,-0.6959 -4.0831,-1.24102 -7.753,-1.55965 -2.6147,-0.22703 -8.4621,-0.29997 -11.257,-0.14043 -4.9069,0.28009 -7.1763,0.63555 -10.0469,1.57368 -2.7236,0.89008 -3.2264,0.7902 -3.8191,-0.75854 -0.3866,-1.01019 -0.3572,-2.19131 0.098,-3.95243 0.3805,-1.47099 0.6399,-2.19371 2.1015,-5.85584 0.9546,-2.39196 1.4942,-4.10671 1.9287,-6.12882 0.2341,-1.08947 0.2828,-1.70771 0.2861,-3.62726 0,-2.54729 -0.1711,-3.53685 -0.9195,-5.18745 -1.1228,-2.47634 -3.3435,-4.46262 -6.3168,-5.65007 -2.9252,-1.16821 -5.8054,-1.54063 -11.9551,-1.54583 l -3.8149,-0.003 -2.1889,-2.32178 c -5.9912,-6.355 -8.4561,-8.29408 -11.6948,-9.19981 -1.8197,-0.5089 -4.3561,-0.353 -6.5839,0.40469 -3.9346,1.33817 -6.3386,3.68238 -8.198,7.99383 -0.8146,1.88903 -1.1491,3.00499 -1.9292,6.43548 -1.1233,4.93958 -1.4752,5.39395 -6.1021,7.87797 -4.5937,2.46618 -7.166,4.50386 -8.816,6.98377 -0.8811,1.32416 -1.2089,2.07158 -1.6307,3.71835 -0.3817,1.49021 -0.5351,1.78029 -1.1064,2.09245 -0.3661,0.20009 -0.8041,0.22023 -4.5329,0.2084 -7.6384,-0.0242 -11.7004,-0.67669 -16.06,-2.57972 -4.7228,-2.06154 -9.9745,-3.05145 -17.5234,-3.30308 -4.3001,-0.14333 -5.4985,0.14844 -11.257,2.74088 l -2.0638,0.92909 -3.4396,-3.398 c -2.3549,-2.32637 -3.8933,-3.73597 -4.878,-4.46965 -5.4518,-4.06177 -11.7015,-6.607 -18.1989,-7.41166 -4.8474,-0.60032 -12.3824,-0.70827 -16.7917,-0.24057 l -0.7817,0.0829 v -4.72265 -4.72265 l 0.6567,0.0773 c 0.3611,0.0425 2.7673,0.13406 5.347,0.20348 4.7271,0.12721 7.3931,0.26678 9.6936,0.50746 10.9225,1.14278 18.3979,3.95041 25.2657,9.4893 3.4483,2.78109 3.6025,2.80873 16.7799,3.00757 10.0871,0.15221 12.327,0.30178 15.0516,1.00507 1.1731,0.3028 1.7314,0.51738 4.0625,1.56165 5.8768,2.63259 9.5488,2.85621 13.0414,0.79421 0.4386,-0.25896 1.5506,-1.26193 2.9045,-2.61982 2.9299,-2.9386 4.5672,-4.18124 8.318,-6.31303 2.1264,-1.20863 3.1992,-2.18268 3.8013,-3.45148 0.2205,-0.46467 0.694,-2.01279 1.0713,-3.50218 0.7789,-3.07565 1.0916,-3.99688 2.0294,-5.98006 2.0213,-4.27427 5.463,-7.80678 9.4431,-9.69215 1.5164,-0.71832 3.4475,-1.35196 5.188,-1.7023 1.7223,-0.34666 6.2005,-0.48343 7.9755,-0.24359 2.3598,0.31886 4.5727,1.07406 6.5584,2.23815 1.7055,0.99984 3.4534,2.44288 6.1579,5.08388 4.2268,4.12754 4.2875,4.15588 9.2492,4.31941 4.3142,0.1422 5.9991,0.30716 7.7548,0.75925 2.8731,0.73984 5.0495,2.07554 7.922,4.86198 2.5169,2.44143 3.8778,4.19551 4.9975,6.44151 1.7244,3.4589 2.0943,6.74674 1.6013,14.23226 -0.1441,2.18672 -0.2619,4.13509 -0.2619,4.32969 v 0.35382 l 6.9731,0.0713 c 8.6445,0.0883 11.7928,0.31635 14.2665,1.03321 1.8301,0.53033 3.4317,0.40266 6.2376,-0.49726 2.9849,-0.95731 5.5015,-1.42652 8.17,-1.52324 2.1107,-0.0765 2.7865,-0.20361 3.345,-0.62909 0.5481,-0.41751 1.2246,-1.85708 2.1381,-4.55017 1.6185,-4.77085 2.912,-7.32608 5.3822,-10.63162 1.231,-1.64721 3.7398,-4.28083 5.2072,-5.46626 2.3643,-1.91001 5.419,-3.64181 7.7608,-4.39989 3.6303,-1.17519 8.2872,-1.78439 13.69,-1.79087 4.1729,-0.005 7.4439,0.34257 9.8499,1.04664 l 0.9068,0.26536 v 4.79728 c 0,2.6385 -0.03,4.79727 -0.066,4.79727 -0.036,0 -0.3881,-0.16242 -0.7817,-0.36093 -1.6029,-0.80846 -3.841,-1.43087 -6.4067,-1.78168 -1.5546,-0.21256 -7.1348,-0.21667 -8.9431,-0.007 -9.1249,1.06015 -14.2966,5.03318 -17.6219,13.53766 -0.8387,2.145 -1.4541,4.37602 -2.5739,9.33192 -0.5551,2.45652 -1.0268,4.48388 -1.0481,4.50524 -0.021,0.0214 -2.7924,0.0574 -6.1579,0.0801 -5.0203,0.0339 -6.3434,0.0792 -7.3685,0.25223 -1.9837,0.33485 -3.485,0.78349 -5.5094,1.64643 -3.011,1.28348 -3.7283,1.40146 -5.2889,0.86987 z"
               id="path1246" />
            <path
               style="font-variation-settings:normal;opacity:1;vector-effect:none;fill:#e6368c;fill-opacity:1;stroke-width:0.0387958;stroke-linecap:butt;stroke-linejoin:miter;stroke-miterlimit:4;stroke-dasharray:none;stroke-dashoffset:0;stroke-opacity:1;stop-color:#000000;stop-opacity:1"
               d="m -1422.4689,-109.39602 -4.4439,-3.51208 0.098,-4.8473 c 0.054,-2.66602 0.2813,-5.07839 0.5057,-5.36083 0.2244,-0.28244 0.5715,-2.08573 0.7712,-4.00732 1.0095,-9.70921 5.9786,-17.33716 14.0848,-21.62094 4.5502,-2.40462 7.7255,-2.89227 18.6941,-2.87095 9.0015,0.0175 10.1412,0.12341 14.7366,1.36946 2.7393,0.74277 6.3415,1.37661 8.005,1.40853 1.6634,0.0319 2.6304,0.161 2.1489,0.28684 -0.7514,0.19636 -0.8756,0.86218 -0.8756,4.69492 v 4.46612 l 1.8762,0.0674 c 1.0319,0.0371 -0.1188,0.27203 -2.5571,0.52214 -4.3412,0.4453 -4.4917,0.42429 -7.2545,-1.01246 -4.4732,-2.32625 -7.8349,-3.12667 -14.4332,-3.43653 -7.0614,-0.3316 -12.6565,0.37612 -16.4407,2.07957 -3.0635,1.37902 -5.5517,4.2606 -7.8257,9.0628 l -1.645,3.47379 -0.166,11.38208 c -0.091,6.26015 -0.3165,11.37866 -0.5004,11.37447 -0.1838,-0.004 -2.334,-1.58805 -4.7782,-3.5197 z"
               id="path1248" />
            <path
               style="font-variation-settings:normal;opacity:1;vector-effect:none;fill:#e6368c;fill-opacity:1;stroke-width:0.0137164;stroke-linecap:butt;stroke-linejoin:miter;stroke-miterlimit:4;stroke-dasharray:none;stroke-dashoffset:0;stroke-opacity:1;stop-color:#000000;stop-opacity:1"
               d="m -1064.7882,11.003747 c -3.3164,-0.769809 -9.181,-3.8881821 -12.0708,-6.4183814 -2.4618,-2.1554681 -4.7337,-5.9767429 -6.3035,-10.6023538 -1.4789,-4.3576028 -2.9469,-11.0008618 -4.9787,-22.5305858 -4.6346,-26.298997 -13.5961,-67.257861 -15.286,-69.865648 -0.2589,-0.399428 -0.8908,0.289869 -1.7795,1.940853 -0.9399,1.746332 -3.1229,4.665851 -5.8858,7.871729 -1.1739,1.362029 -2.2576,2.621374 -2.4084,2.798547 -0.2442,0.287001 -0.2859,3.557654 -0.3827,29.99162 l -0.1086,29.669488 -1.8988,3.391265 c -2.4211,4.324261 -4.2541,6.859214 -6.8178,9.429021 -2.2116,2.216816 -3.5688,3.19855 -6.2996,4.5567403 -5.7907,2.8801061 -12.5486,4.2501421 -19.9714,4.048806 -6.2491,-0.1695035 -10.5857,-1.3296545 -14.4565,-3.8675572 -1.5058,-0.9872565 -2.3669,-1.2028319 -3.4391,-0.8609398 -0.3762,0.1199451 -1.9503,0.8106987 -3.498,1.5350059 -3.3619,1.5733072 -4.7745,2.0546869 -7.1069,2.4219286 -3.7588,0.5918084 -15.9539,0.9874529 -20.2184,0.655944 -3.1668,-0.2461786 -4.7008,-0.5582565 -6.7875,-1.3809163 -2.2018,-0.868056 -3.7038,-0.8886898 -6.1451,-0.084424 -3.4675,1.1423066 -7.775,1.5285177 -17.0696,1.5304582 -6.9086,0.00141 -10.1845,-0.1805997 -12.6762,-0.7044181 -1.6472,-0.3462647 -4.1464,-1.3805607 -5.8606,-2.4254292 -0.7983,-0.4865449 -1.6106,-0.9742536 -1.8052,-1.0837978 -0.3079,-0.1733384 -0.3386,-0.3138856 -0.2366,-1.0836046 0.065,-0.486439 0.1242,-2.981057 0.1327,-5.543597 l 0.015,-4.659162 0.6775,0.857149 c 2.2817,2.886566 6.0999,5.135703 10.1183,5.960264 5.0207,1.030228 14.4924,0.729134 21.4232,-0.681021 2.8497,-0.579791 4.168,-1.075536 6.4663,-2.43156 l 1.9813,-1.169003 1.8218,1.346012 c 2.3528,1.738365 3.4868,2.295242 5.4932,2.69735 4.0029,0.802256 13.3814,1.049586 17.6434,0.465292 6.951,-0.952951 11.3217,-3.286658 13.7452,-7.339265 0.4092,-0.684274 1.1255,-2.282836 1.5919,-3.552356 0.4664,-1.269522 0.894,-2.309101 0.9503,-2.310177 0.056,-0.0011 0.7328,1.329933 1.5035,2.957793 2.4398,5.153332 3.9512,7.01748 6.8559,8.456045 2.7076,1.340947 4.2051,1.576598 10.023,1.577187 3.745,3.53e-4 5.3121,-0.06991 6.8101,-0.305463 6.502,-1.022396 10.5086,-3.281908 14.6231,-8.246607 4.2309,-5.105254 5.0135,-10.544112 4.5842,-31.858362 -0.2224,-11.041217 -0.4146,-16.539078 -0.8195,-23.4375 -0.3256,-5.548063 -0.4978,-7.203929 -1.0049,-9.66514 -0.4878,-2.367779 -0.4095,-2.593224 1.1587,-3.334145 2.5624,-1.210702 6.836,-5.720105 10.2275,-10.791991 2.6658,-3.98659 5.7828,-11.29503 7.2047,-16.89269 0.936,-3.68478 1.161,-5.49553 1.1646,-9.375 0,-3.34114 -0.038,-3.86579 -0.4067,-5.21816 -0.473,-1.73352 -1.3656,-3.531 -2.2896,-4.61048 -0.7125,-0.83246 -3.0323,-2.73493 -3.5254,-2.89124 -0.294,-0.0932 -0.3119,-0.42867 -0.2656,-4.96656 0.027,-2.67664 0.081,-4.86662 0.1182,-4.86662 0.038,0 1.0497,0.44042 2.249,0.97872 l 2.1805,0.97873 2.6542,-2.71588 c 1.4597,-1.49374 3.2511,-3.13556 3.9808,-3.6485 4.2514,-2.98872 10.1305,-4.88794 24.738,-7.99161 12.0569,-2.56176 19.1246,-3.50339 27.3801,-3.64792 5.8355,-0.10217 8.4621,0.0538 12.5454,0.74504 6.0085,1.01712 11.0145,2.678 17.4561,5.79162 l 2.9629,1.4321 v 5.19405 5.19405 l -1.0171,-0.65209 c -5.833,-3.7397 -11.198,-6.10887 -17.3791,-7.67459 -9.6743,-2.45055 -18.2213,-2.17561 -36.1142,1.16174 -10.1983,1.90217 -20.367,4.61628 -24.1009,6.43271 -3.9936,1.94282 -6.8941,5.94097 -8.0862,11.1464 -0.4976,2.17318 -0.624,6.28782 -0.2649,8.62987 0.1524,0.99466 2.4347,11.06394 5.0717,22.37618 8.9999,38.608239 12.2173,53.764149 15.8969,74.885132 3.5571,20.417633 4.3612,23.4884946 7.1028,27.1268614 2.5596,3.39687911 7.866,6.5873561 12.074,7.2595984 1.364,0.2179034 2.9798,0.021716 8.1672,-0.9916768 6.325,-1.23561796 11.6995,-2.61621761 14.3586,-3.6884558 3.1375,-1.2651563 5.4296,-3.1533432 7.2931,-6.0078927 2.3293,-3.5680555 3.1116,-6.3368135 3.1011,-10.9757455 -0.01,-3.968643 -0.4824,-6.952664 -2.3997,-15.123821 -0.5821,-2.480837 -1.3306,-5.860641 -1.6633,-7.510675 -0.5515,-2.734767 -0.5814,-3.036086 -0.3381,-3.407437 0.5004,-0.763799 1.9336,-1.624497 6.3582,-3.818567 2.4322,-1.20606 5.9631,-3.080039 7.8465,-4.164398 1.8833,-1.08436 3.4912,-1.971564 3.5731,-1.971564 0.1768,0 0.3061,7.34671 0.4327,24.587264 l 0.093,12.647406 -0.3558,-0.442217 c -0.792,-0.984221 -2.3235,-3.373313 -3.2243,-5.029849 -0.5256,-0.966594 -1.0409,-1.785849 -1.1451,-1.820566 -0.3012,-0.100416 -0.3886,0.333196 -0.588,2.917038 -0.1032,1.336411 -0.2678,3.464627 -0.366,4.729367 -0.5877,7.5726648 -3.0168,13.4013093 -7.4091,17.77766544 -5.4177,5.39810906 -13.4063,8.43818106 -26.068,9.92020656 -3.9726,0.464964 -10.0668,0.606332 -11.5271,0.267364 z"
               id="path1250" />
            <path
               style="font-variation-settings:normal;opacity:1;vector-effect:none;fill:#e6368c;fill-opacity:1;stroke-width:0.0387958;stroke-linecap:butt;stroke-linejoin:miter;stroke-miterlimit:4;stroke-dasharray:none;stroke-dashoffset:0;stroke-opacity:1;stop-color:#000000;stop-opacity:1"
               d="m -777.19828,10.709244 c -16.87856,-2.7652512 -23.52725,-5.8316148 -28.51097,-13.1492043 -3.08301,-4.5267926 -3.2021,-4.5886561 -7.7978,-4.0511215 -7.21369,0.8437451 -19.29671,1.1304036 -23.78078,0.5641761 -13.63669,-1.7219768 -24.74622,-9.6762323 -31.06496,-22.2420283 -2.98032,-5.926839 -3.38563,-8.665559 -3.39565,-22.944331 l -0.009,-12.382708 h -2.09344 c -3.04908,0 -6.36199,1.759701 -7.2317,3.841221 -0.49245,1.178579 -0.86095,5.551526 -1.20612,14.312514 -0.54745,13.895413 -1.11314,19.631444 -2.2978,23.299552 -1.65752,5.132214 -8.32102,12.0909752 -14.50307,15.1456965 -2.72592,1.3469534 -3.81513,1.5652993 -9.79349,1.963202 -7.20349,0.4794484 -14.27178,0.049081 -20.13937,-1.2261632 -3.26353,-0.7093015 -3.76474,-0.6930214 -8.00499,0.2599918 -3.38771,0.7614039 -7.60109,1.1302385 -16.78109,1.4689993 -7.4942,0.2765522 -13.5214,0.743748 -15.50965,1.2022283 -4.23177,0.9758174 -16.1677,1.0122501 -21.09415,0.064385 -8.09913,-1.5582999 -14.73459,-5.0557818 -20.40569,-10.7556597 l -3.7783,-3.797473 0.2636,-12.25763 c 0.1449,-6.741696 0.3138,-11.352546 0.3752,-10.246327 0.1736,3.127822 1.9858,9.121462 4.0056,13.248196 2.5283,5.16564 7.6039,10.245066 12.65851,12.667944 5.12039,2.454413 8.90095,3.000423 18.87688,2.726312 7.37373,-0.202611 8.81369,-0.386335 12.33963,-1.5744 l 3.99174,-1.345022 4.7637,0.813607 c 7.05035,1.204149 17.25145,0.123932 22.1296,-2.343359 2.47731,-1.252985 3.44076,-1.18854 6.53319,0.437002 l 2.61742,1.375856 h 10.7567 c 10.22275,0 10.88588,-0.05842 13.35921,-1.176937 2.92576,-1.323114 6.99164,-5.319686 8.58062,-8.43435 1.4885,-2.917686 1.97461,-6.816142 2.57587,-20.657552 0.74248,-17.092654 1.18095,-19.159245 4.84162,-22.819919 2.41692,-2.416924 4.84922,-3.418773 11.2116,-4.617994 5.51213,-1.038962 7.5762,-1.75914 10.37129,-3.618667 l 1.65954,-1.104068 -0.35133,18.206647 c -0.39455,20.447472 -0.26654,21.621063 3.04332,27.900506 2.39746,4.548426 5.13067,7.583085 9.40418,10.441384 7.63282,5.105143 19.02538,7.148274 31.28638,5.610877 5.39006,-0.675855 9.16193,-2.12078 11.60643,-4.446182 2.32844,-2.214989 5.16098,-8.046989 5.92453,-12.198207 0.6218,-3.380549 0.84953,-3.848461 1.87298,-3.848461 0.83818,0 5.1853,2.846112 5.19485,3.401137 0.004,0.19316 -1.26651,2.848953 -2.82185,5.901764 -2.50353,4.913888 -2.8549,5.975564 -3.06336,9.255761 -0.38314,6.028967 1.09063,9.605423 5.27251,12.7950483 2.60877,1.9897784 6.71344,3.28046679 15.82306,4.9754668 9.69753,1.8043981 12.80012,1.6016419 18.46798,-1.2068912 2.70959,-1.3426557 4.76268,-2.7375289 5.51427,-3.7464218 1.15196,-1.5463025 6.89225,-12.0835311 16.95613,-31.1257081 16.50276,-31.225395 28.76994,-55.544632 31.67225,-62.789081 3.14982,-7.862242 2.58736,-12.468482 -2.10307,-17.223222 -2.92425,-2.96434 -11.11495,-5.66169 -20.81013,-6.85316 -5.62989,-0.69187 -10.05043,-0.16853 -13.78601,1.6321 -2.98635,1.43949 -6.8759,5.34298 -9.1117,9.14437 -0.95758,1.62811 -1.99981,3.04645 -2.31607,3.15185 -0.35897,0.11964 -0.70582,-0.8046 -0.92314,-2.4599 -0.7671,-5.84269 -4.85451,-11.6815 -9.55133,-13.64396 -3.21851,-1.34478 -10.16516,-2.3094 -16.85593,-2.34064 -5.93799,-0.0277 -6.58527,0.0647 -9.11289,1.30136 -3.21526,1.57308 -6.44709,5.02381 -8.04247,8.58722 -0.6302,1.40759 -1.4707,2.68392 -1.86779,2.8363 -0.86132,0.33052 -7.29009,-0.40927 -7.77028,-0.89416 -0.18448,-0.18629 -0.33541,-3.97699 -0.33541,-8.42378 0,-7.56847 -0.0765,-8.22894 -1.19789,-10.33649 -2.97216,-5.5861 -5.69363,-7.38944 -13.61723,-9.02324 -7.35711,-1.517 -14.53682,-1.79994 -18.35845,-0.72348 -6.22745,1.75412 -9.81633,6.49242 -12.55837,16.5805 -0.83108,3.05755 -1.82273,5.63854 -2.30069,5.98803 -0.46201,0.33783 -1.7761,0.76224 -2.9202,0.94313 -2.6419,0.41771 -5.57983,1.9035 -7.89344,3.99192 -2.28216,2.06002 -4.06454,2.59982 -9.69639,2.93654 -2.47654,0.14807 -6.19136,0.73736 -8.25514,1.30954 -6.52243,1.80832 -6.83678,1.81782 -8.38259,0.25326 -2.77582,-2.80946 -5.07234,-3.39908 -14.19781,-3.64518 -9.73401,-0.26252 -17.22653,0.46888 -20.37166,1.98861 -1.53768,0.74301 -2.68751,1.85032 -3.91673,3.77191 l -1.74004,2.72012 -4.84055,-4.69705 c -4.991,-4.84306 -7.75297,-6.78156 -11.59244,-8.13621 -3.9366,-1.38891 -10.5997,-2.29223 -17.00925,-2.30594 -9.16636,-0.0196 -15.78119,1.53606 -21.36035,5.02354 -2.14592,1.3414 -2.43903,1.41061 -2.7261,0.64371 -0.17692,-0.4726 -1.04775,-3.17036 -1.93519,-5.99502 -0.96646,-3.0762 -2.64319,-6.8725 -4.18114,-9.46658 -2.81098,-4.74134 -8.81848,-11.44577 -13.24888,-14.78588 l -2.8271,-2.13141 0.2501,-5.15995 0.2502,-5.15995 3.0018,2.09535 c 7.52,5.24902 16.55444,14.96306 20.39234,21.9262 1.12025,2.03249 2.51652,4.25311 3.10281,4.93472 1.04854,1.21899 1.11477,1.22835 4.04494,0.57179 2.04431,-0.45806 6.90318,-0.66946 15.48672,-0.67378 12.43207,-0.006 12.53354,0.002 16.76044,1.42006 5.14903,1.72701 9.28476,3.75913 13.15702,6.46482 l 2.90064,2.02677 2.60279,-1.14674 c 5.21942,-2.2996 6.22104,-2.49126 14.68213,-2.80945 12.03459,-0.45258 19.00127,0.21764 23.70032,2.28006 l 3.69538,1.62192 5.02789,-1.05804 c 2.76534,-0.58192 6.37873,-1.19617 8.02976,-1.36499 2.10795,-0.21554 3.59782,-0.71877 5.00311,-1.6899 1.10069,-0.76063 3.12695,-1.95317 4.50281,-2.6501 3.25783,-1.65022 4.43584,-3.01394 5.50191,-6.3693 2.47091,-7.77696 7.70008,-13.94627 14.80354,-17.46507 3.2974,-1.63341 4.96884,-2.1467 7.71198,-2.3683 6.20899,-0.5016 21.81934,2.05503 26.20316,4.29148 4.75887,2.4278 10.51358,9.28882 12.60727,15.03098 l 1.06374,2.91741 3.57755,-1.91389 c 1.96766,-1.05264 4.57709,-2.17713 5.79875,-2.49886 4.76239,-1.2542 19.2038,-0.26165 26.0464,1.79016 3.80508,1.14098 4.95068,1.79672 8.70854,4.98474 l 3.27337,2.777 4.14035,-1.98667 c 6.69082,-3.21046 9.17015,-3.73636 16.13442,-3.42238 6.14775,0.27717 13.57887,1.56647 19.41073,3.36775 9.96245,3.07708 16.85081,12.53958 16.86931,23.17326 0.005,2.69865 -0.32552,4.215167 -1.57965,7.254519 -2.00077,4.848813 -23.40089,47.36355 -33.11449,65.787197 -14.78612,28.0446 -18.60651,33.9616429 -24.44492,37.8603795 -4.51661,3.0160825 -8.37066,4.0235095 -15.07887,3.9415385 -3.06669,-0.03747 -6.13865,-0.16035 -6.82658,-0.27305 z"
               id="path1252" />
          </g>
        </g>
        <path
           style="font-variation-settings:normal;opacity:1;vector-effect:none;fill:#e6368c;fill-opacity:1;stroke-width:0.0034291;stroke-linecap:butt;stroke-linejoin:miter;stroke-miterlimit:4;stroke-dasharray:none;stroke-dashoffset:0;stroke-opacity:1;stop-color:#000000;stop-opacity:1"
           d="m -1450.1636,-58.982001 c -0.4355,-0.225401 -0.9532,-1.039143 -1.4539,-2.285136 -0.9084,-2.260496 -1.8518,-8.715357 -1.8599,-12.725254 0,-1.185949 0.01,-1.437488 0.074,-1.692423 0.211,-0.821048 0.6098,-1.088867 1.4316,-0.961539 1.7332,0.268535 2.4444,2.479235 3.0661,9.530436 0.1851,2.099032 0.2339,4.030017 0.1332,5.271029 -0.1752,2.158748 -0.693,3.224276 -1.3913,2.862887 z"
           id="path1281" />
      </g>
      <path
         style="font-variation-settings:normal;opacity:1;vector-effect:none;fill:#f9f9f9;fill-opacity:1;stroke-width:0.0193979;stroke-linecap:butt;stroke-linejoin:miter;stroke-miterlimit:4;stroke-dasharray:none;stroke-dashoffset:0;stroke-opacity:1;stop-color:#000000;stop-opacity:1"
         d="m 112.71392,95.058622 c -1.93733,-0.358614 -3.41813,-1.173378 -4.99077,-2.74602 -2.58384,-2.58384 -3.11168,-4.757726 -2.74476,-11.304073 0.11869,-2.117698 0.17967,-3.88778 0.13551,-3.933516 -0.0442,-0.04574 -0.90591,0.551796 -1.915,1.327852 -3.10874,2.390818 -7.66345,4.360251 -12.19375,5.272501 -3.035794,0.611308 -8.021503,0.399056 -11.398627,-0.485267 -4.764073,-1.247506 -9.910131,-4.301392 -13.024682,-7.729393 -3.165075,-3.483611 -6.311071,-9.082128 -7.023449,-12.498704 -0.206706,-0.991377 -0.40103,-1.827703 -0.431829,-1.8585 -0.0308,-0.0308 -1.121515,0.625617 -2.423818,1.458698 -3.597249,2.30116 -7.940785,4.321325 -12.37405,5.755125 -2.20137,0.711966 -4.07691,1.360146 -4.167866,1.440406 -0.09096,0.08026 -7.51e-4,1.496765 0.200342,3.147792 0.201145,1.651028 0.388134,5.36584 0.415531,8.255138 0.04977,5.248204 0.04916,5.254596 -0.626122,6.629126 -1.292402,2.630663 -3.433222,4.284795 -6.596441,5.096828 -2.43506,0.625106 -8.515589,1.223028 -11.168222,1.098213 -2.098229,-0.09873 -2.653988,-0.224324 -4.063856,-0.918399 C 16.268527,92.055477 14.471745,90.320898 13.626024,88.532967 12.57244,86.305594 12.226071,83.743081 11.936363,76.032469 11.534251,65.330216 11.036543,59.470538 8.8129574,39.259581 6.6577728,19.670343 6.5489468,16.452828 7.948759,13.708969 8.7287994,12.179964 10.332807,10.575878 11.773055,9.8844863 16.179589,7.7691288 35.115518,6.5234017 42.518008,7.8618859 c 7.316054,1.3228559 12.562742,4.0113551 17.580868,9.0087601 4.13361,4.11654 6.693784,8.438727 7.750479,13.084659 0.225123,0.989783 0.514733,1.799605 0.643583,1.799605 0.12885,0 1.442525,-0.604797 2.91928,-1.343993 4.98974,-2.497639 8.540683,-3.40594 13.323185,-3.407959 7.214493,-0.003 11.624367,1.449812 17.435297,5.744152 1.68184,1.242904 3.10845,2.259824 3.17024,2.259824 0.0618,0 0.14913,-2.792415 0.19412,-6.205365 l 0.0818,-6.205366 0.98187,-1.987233 c 1.42207,-2.878143 3.27027,-4.659515 5.55405,-5.353188 2.31812,-0.704111 6.03957,-0.99049 9.57856,-0.737108 3.38896,0.242641 5.18928,0.673677 7.33244,1.75554 l 1.55485,0.784883 4.13447,-0.316203 c 4.54348,-0.347484 9.34246,-0.0983 12.1139,0.629019 4.11904,1.080968 7.60607,3.052837 10.67395,6.035985 l 1.89295,1.840664 2.23462,-0.936934 2.23462,-0.936934 3.62726,0.0076 c 4.28406,0.009 6.15461,0.313942 9.94275,1.620774 1.81553,0.626323 3.653,1.064169 5.18087,1.234537 3.24947,0.362337 6.45142,0.339828 6.9273,-0.0487 0.21064,-0.171982 0.58512,-0.875545 0.83216,-1.563473 0.61778,-1.720296 2.4656,-3.452209 5.40964,-5.070318 1.31889,-0.72489 2.63026,-1.569165 2.91416,-1.876168 0.2839,-0.307002 0.87111,-1.796456 1.30492,-3.309898 0.43381,-1.513442 1.06168,-3.219002 1.39526,-3.790134 1.98969,-3.4065662 6.30289,-4.7692427 9.73841,-3.0766757 0.71574,0.3526199 2.37461,1.7018525 3.90611,3.1770127 l 2.66202,2.564096 h 2.87649 c 3.60702,0 5.14487,0.280493 7.18776,1.31099 2.08177,1.050118 3.05344,2.483296 3.21704,4.745011 0.13829,1.911895 -0.23326,3.572697 -1.48672,6.645449 -1.25108,3.06694 -1.4381,4.234936 -0.80357,5.018552 l 0.46843,0.578485 1.99642,-0.543513 c 1.56861,-0.427044 2.96301,-0.571866 6.50711,-0.675827 4.95574,-0.14537 7.78733,0.119315 10.2785,0.96079 l 1.55941,0.526745 2.33224,-0.828581 c 2.22648,-0.791003 2.52688,-0.833062 6.62441,-0.927448 l 4.29215,-0.09887 0.8081,-3.249945 c 2.18939,-8.805214 5.74763,-11.77592 14.12221,-11.790388 6.01915,-0.0104 9.49049,1.869067 10.39187,5.626414 0.44828,1.86866 0.16756,5.608143 -0.62301,8.299119 -0.82764,2.817093 -2.79434,6.994878 -4.25935,9.047908 -1.522,2.132868 -4.02891,4.644414 -5.49132,5.501442 -1.10619,0.648261 -1.18013,0.753607 -1.03452,1.473502 1.16535,5.760768 1.54827,28.714748 0.53869,32.292472 -0.55105,1.952788 -1.62619,3.596726 -3.36815,5.150023 -2.50478,2.233493 -5.07091,3.134361 -9.66196,3.391966 -4.74633,0.266318 -7.9613,-0.580761 -9.5438,-2.514597 -0.39228,-0.479374 -1.16234,-1.726773 -1.71125,-2.771998 -0.91319,-1.73889 -1.018,-1.851578 -1.23312,-1.325886 -1.67636,4.096433 -3.321,5.480994 -7.75108,6.525354 -1.67314,0.394431 -9.82369,0.36479 -11.70208,-0.04256 -0.80456,-0.174474 -2.06723,-0.725534 -2.90881,-1.269478 l -1.48712,-0.961173 -0.98572,0.559899 c -2.17353,1.234588 -5.08292,1.825846 -10.08218,2.04894 -5.66335,0.252732 -9.01023,-0.558218 -11.46804,-2.778695 -2.18081,-1.970238 -2.58766,-3.702214 -2.91005,-12.388295 -0.0894,-2.407749 -0.22219,-4.583996 -0.29518,-4.836108 -0.10917,-0.377077 -0.47244,-0.130018 -2.04802,1.392887 -2.35577,2.277 -3.65674,3.174131 -6.67938,4.605967 -2.99868,1.420489 -6.14307,2.213788 -10.62518,2.680628 -1.95744,0.20388 -3.64703,0.463799 -3.75464,0.5776 -0.10762,0.113798 -0.43884,1.895457 -0.73607,3.959242 -1.27461,8.850288 -2.54514,12.195735 -5.34141,14.064521 -1.75001,1.169553 -2.63384,1.368342 -6.67348,1.500982 -7.79602,0.255977 -11.68823,-1.36471 -13.94393,-5.806141 -0.61644,-1.213746 -0.62962,-1.345698 -0.48721,-4.878037 0.0805,-1.9968 0.54456,-6.669939 1.03123,-10.384751 0.99723,-7.611868 1.02901,-8.093232 0.54666,-8.27833 -0.19001,-0.07291 -1.34365,0.439779 -2.56365,1.139312 -3.97866,2.281327 -7.49472,3.385499 -13.81571,4.338648 l -3.66287,0.552326 -0.15789,6.002058 c -0.15569,5.918216 -0.36369,7.795272 -1.13633,10.254705 -1.0843,3.451471 -3.45954,6.268655 -5.91191,7.011882 -1.50973,0.457548 -11.52146,0.741622 -13.46407,0.382031 z m 10.02535,-5.260587 c 1.82263,-0.263427 2.65531,-0.773562 3.30114,-2.022429 0.91844,-1.776035 1.6536,-8.235456 1.9249,-16.913067 0.0911,-2.912258 0.22962,-5.359063 0.30793,-5.437352 0.0783,-0.07829 1.14145,-0.02014 2.36253,0.129228 5.32077,0.650838 13.42463,-1.209275 17.98143,-4.127349 5.47414,-3.505519 8.17146,-8.731572 8.95583,-17.35192 0.69188,-7.603845 -0.97273,-13.514642 -4.91671,-17.458629 -1.92306,-1.923053 -4.29454,-3.323803 -6.78747,-4.009125 -2.00499,-0.551179 -9.99911,-0.793549 -12.15888,-0.368639 -1.50708,0.296499 -3.53222,1.192464 -5.0788,2.246967 -1.01939,0.695048 -1.1257,0.657166 -1.1257,-0.401119 0,-1.21753 -1.01276,-2.89761 -2.18665,-3.627466 -0.90375,-0.561893 -1.1348,-0.58462 -5.94341,-0.58462 -4.70626,0 -5.05507,0.03236 -5.87866,0.545327 -0.48155,0.29993 -1.172,0.86278 -1.53433,1.250778 l -0.65877,0.705452 -0.27989,28.142516 c -0.15394,15.478384 -0.34222,29.817036 -0.4184,31.86367 -0.135,3.626927 -0.1223,3.753614 0.50164,5.003114 0.77185,1.545727 1.53533,2.138508 3.09249,2.401094 1.66694,0.281098 6.63415,0.28899 8.53978,0.01356 z m 46.70594,-0.65874 c 1.26829,-0.340252 2.33696,-4.309555 3.46144,-12.85667 0.35298,-2.68292 0.72495,-5.440886 0.82661,-6.128815 l 0.18484,-1.250778 1.12132,0.07313 c 0.61673,0.04022 3.09131,0.08801 5.49905,0.106192 3.99274,0.03016 4.59197,-0.02444 6.81392,-0.620854 5.80845,-1.559091 9.8985,-5.122031 12.03356,-10.482728 1.39088,-3.492228 1.7823,-5.730086 1.7865,-10.213897 0.003,-3.639783 -0.0655,-4.348544 -0.58326,-5.997428 -1.2044,-3.835692 -3.0234,-6.265389 -5.79761,-7.744027 -3.23326,-1.723313 -9.60696,-2.692426 -13.38811,-2.03565 -0.98352,0.170837 -2.40883,0.656772 -3.27707,1.117268 l -1.53653,0.814937 -0.10817,-1.495503 c -0.0897,-1.239653 -0.22337,-1.59459 -0.78151,-2.074682 -0.91852,-0.790071 -2.72203,-1.284335 -5.84587,-1.602092 -5.45538,-0.554922 -6.99149,0.345664 -7.56344,4.434258 -0.32527,2.325172 -0.90867,8.676533 -1.51184,16.459087 -0.86193,11.121132 -1.47914,17.499279 -2.40866,24.890492 -0.99251,7.8922 -1.16566,11.421672 -0.62338,12.707199 0.39921,0.946362 1.3575,1.519956 3.0049,1.79862 1.36894,0.231561 7.92365,0.308422 8.69331,0.101941 z M 27.268549,88.418646 c 5.460449,-0.57949 6.442653,-0.983092 7.47022,-3.069623 0.51788,-1.051579 0.580469,-1.513607 0.55044,-4.063284 -0.01864,-1.582235 -0.16061,-4.002491 -0.315499,-5.378347 -1.073921,-9.539455 -0.956533,-10.050566 2.553712,-11.119074 10.394065,-3.163921 14.357794,-5.083279 18.429056,-8.923902 4.513707,-4.258 6.786184,-9.394254 7.180604,-16.229601 0.700959,-12.1477 -7.178485,-22.893042 -19.114239,-26.06644 -2.274731,-0.604789 -2.918432,-0.658092 -9.200064,-0.761823 -7.328887,-0.121025 -13.181342,0.270005 -17.582679,1.174781 -2.557031,0.525646 -3.757704,1.097139 -4.259573,2.027462 -0.657379,1.218595 0.0199,11.068264 1.830975,26.627888 1.486589,12.771847 2.212679,21.696535 2.87981,35.397032 0.324743,6.669073 0.523799,7.757296 1.646211,8.999672 1.681248,1.860938 2.349281,1.97762 7.931026,1.385259 z M 222.57503,79.964852 c 0.47583,-0.203799 1.23708,-0.761449 1.69166,-1.239221 l 0.82651,-0.868679 -0.38907,-8.229294 C 223.7717,49.905365 223.39786,45.789233 222.48644,45.2097 c -0.72117,-0.458561 -12.10552,0.02802 -13.8922,0.593762 -1.66324,0.526663 -1.85938,2.549719 -1.16271,11.992186 0.2071,2.807005 0.47462,8.311894 0.59448,12.233085 0.17679,5.783742 0.29859,7.327303 0.64528,8.177727 0.82221,2.016865 2.10285,2.344865 8.65047,2.215582 3.15654,-0.06233 4.63095,-0.190642 5.25327,-0.45719 z m 21.50299,0.02804 c 2.20626,-0.980715 2.26412,-1.309997 2.49836,-14.216808 0.12655,-6.973646 0.31109,-11.453702 0.51382,-12.474245 0.39297,-1.978188 1.51365,-3.695837 2.8614,-4.385644 1.23168,-0.630398 3.83428,-0.835298 4.91641,-0.387064 1.60875,0.666365 1.8498,2.526753 2.21846,17.121875 0.14249,5.641011 0.37391,10.751697 0.51429,11.357081 0.72828,3.140945 3.53155,4.194221 8.31651,3.124775 3.51456,-0.785511 5.36616,-2.372159 5.95107,-5.099484 0.18985,-0.885158 0.23785,-4.906972 0.15333,-12.840282 -0.1491,-13.99436 -0.30917,-15.178888 -2.71692,-20.107188 -1.31172,-2.684886 -2.54276,-4.047241 -4.64024,-5.135138 -2.73252,-1.417295 -4.18108,-1.807775 -6.57777,-1.773151 -2.64922,0.03827 -4.23744,0.57441 -7.62106,2.572668 -1.38064,0.815358 -2.69963,1.553913 -2.93111,1.641232 -0.47396,0.178796 -0.94205,-0.559856 -1.4645,-2.310971 -0.28973,-0.971122 -0.39437,-1.065336 -1.34077,-1.207151 -0.56458,-0.0846 -3.41069,-0.117168 -6.32468,-0.07237 -4.92687,0.07574 -5.34762,0.118366 -6.00374,0.608203 -0.38806,0.289713 -0.77667,0.852563 -0.86359,1.250779 -0.24644,1.129205 -0.22895,31.473044 0.021,36.371213 0.12285,2.407748 0.33947,4.680981 0.48138,5.051624 0.50728,1.324972 1.17636,1.469024 6.40987,1.380046 3.62013,-0.06155 4.96164,-0.173568 5.62851,-0.47 z M 91.591377,78.058951 c 7.725431,-2.057398 13.112303,-7.575956 15.306893,-15.681095 0.37044,-1.368102 0.46727,-2.593337 0.46291,-5.857531 -0.005,-3.718034 -0.0734,-4.372554 -0.68939,-6.596711 -0.7585,-2.73856 -2.1949,-5.990016 -3.45589,-7.822799 -2.04886,-2.977914 -5.941778,-6.449042 -8.89643,-7.932513 -4.608143,-2.313657 -12.173099,-2.530132 -17.259547,-0.493889 -4.324034,1.731029 -8.994141,6.150358 -10.900087,10.314765 -2.202666,4.81273 -2.653792,11.588768 -1.159046,17.409183 0.750597,2.922759 2.886521,7.163736 4.668663,9.26985 3.22495,3.811199 8.053775,6.677211 13.058142,7.750283 2.234942,0.479231 6.339379,0.312743 8.863782,-0.359543 z M 208.01811,42.780891 c 0.51875,-0.264653 1.89142,-1.184253 3.05037,-2.043557 1.15894,-0.859308 2.61557,-1.820121 3.23694,-2.135144 l 1.12977,-0.572769 2.8768,0.604654 c 1.58223,0.332559 3.45961,0.609344 4.17195,0.61508 1.1012,0.0089 1.37125,-0.08631 1.80326,-0.635521 0.63723,-0.810101 0.57207,-1.180882 -1.00753,-5.733023 -0.66838,-1.926199 -1.21597,-3.671035 -1.21684,-3.877413 -0.001,-0.206379 0.68945,-1.876641 1.53407,-3.711695 0.84463,-1.835053 1.59039,-3.821822 1.65725,-4.415042 0.10942,-0.970756 0.0509,-1.124869 -0.58513,-1.541576 -0.61536,-0.403148 -1.24164,-0.463285 -4.84519,-0.465254 -4.93425,-0.0027 -5.10827,-0.06985 -7.35304,-2.837741 -1.72192,-2.123191 -3.80435,-3.789124 -4.73643,-3.789124 -0.93509,0 -1.29609,0.654281 -2.60186,4.715682 -0.63481,1.97449 -1.40552,3.888651 -1.71268,4.25369 -0.30716,0.36504 -1.44417,1.157972 -2.52669,1.762071 -6.06557,3.384895 -6.26264,3.989075 -2.29714,7.042834 2.66999,2.056113 4.41139,3.676739 4.83875,4.503153 0.18621,0.360092 0.51847,1.714475 0.73835,3.009744 0.94818,5.585616 1.55762,6.417892 3.84502,5.250951 z m 66.04745,-3.77879 c 1.50324,-0.682067 3.94568,-3.263946 5.20975,-5.507135 1.25202,-2.22186 3.23746,-7.216091 3.61392,-9.090614 0.22702,-1.130371 0.20145,-1.478887 -0.16523,-2.251606 -0.23862,-0.502825 -0.78581,-1.165294 -1.21601,-1.472152 -0.69815,-0.497997 -1.07772,-0.556718 -3.53387,-0.546696 -3.64059,0.01486 -4.96299,0.453909 -6.49317,2.15583 -1.26376,1.405596 -2.04815,3.488335 -2.77535,7.369177 -0.55835,2.97977 -0.42646,6.640069 0.28303,7.854882 1.10871,1.898417 2.97035,2.444157 5.07693,1.488314 z"
         id="path1501"
         transform="matrix(1.7144251,0,0,1.8229712,-1598.2215,-169.66143)" />
      <path
         style="font-variation-settings:normal;opacity:1;vector-effect:none;fill:#f9f9f9;fill-opacity:1;stroke-width:0.0193979;stroke-linecap:butt;stroke-linejoin:miter;stroke-miterlimit:4;stroke-dasharray:none;stroke-dashoffset:0;stroke-opacity:1;stop-color:#000000;stop-opacity:1"
         d="m 312.15892,94.482026 c -2.97621,-0.991469 -5.70162,-3.090543 -6.7827,-5.223949 -0.79144,-1.561824 -1.57248,-4.839454 -3.11619,-13.076932 -2.17251,-11.592908 -3.71624,-18.465893 -8.74807,-38.948107 -1.91633,-7.800479 -3.55614,-14.794448 -3.64402,-15.54215 -0.34433,-2.929787 0.8777,-6.602399 2.81945,-8.473367 1.28984,-1.242817 3.05706,-2.004519 7.08883,-3.055414 7.66161,-1.9970244 17.2025,-3.4506134 22.63909,-3.4491455 8.56696,0.00231 16.5278,3.168683 22.69304,9.0260065 3.81752,3.626854 5.8921,6.869412 7.4612,11.661816 0.45048,1.375856 0.85345,2.544371 0.89551,2.5967 0.0421,0.05233 0.95604,-0.362469 2.0311,-0.921773 2.39928,-1.248244 4.79682,-1.931785 8.14271,-2.321495 4.58817,-0.534402 11.72149,0.197661 14.8049,1.519365 1.66572,0.714008 3.15992,1.801831 5.91046,4.302974 1.33296,1.212102 2.47575,2.203822 2.53953,2.203822 0.0638,0 0.51946,-0.607706 1.01262,-1.350458 1.69223,-2.548689 4.06764,-3.152345 12.40459,-3.152345 6.67067,0 8.18677,0.303034 10.15292,2.029338 l 0.87608,0.769207 3.19233,-0.761397 c 1.75578,-0.418768 4.14918,-0.82761 5.31865,-0.908535 3.90001,-0.269873 4.11798,-0.329212 5.81742,-1.583714 1.88225,-1.389448 3.0369,-1.920153 5.0157,-2.30532 1.67073,-0.325203 1.68873,-0.351612 2.80736,-4.118861 0.90817,-3.058453 1.68011,-4.613636 3.04183,-6.128196 2.26656,-2.520958 5.01139,-3.269581 10.22819,-2.789629 7.62038,0.701082 10.35957,1.851447 12.36395,5.192423 l 0.87554,1.459394 v 4.434772 c 0,3.198165 0.0866,4.521461 0.3106,4.745659 0.18208,0.182244 1.23426,0.355047 2.54278,0.417608 l 2.23217,0.106721 0.67169,-1.419832 c 0.84153,-1.778841 2.85412,-3.863017 4.63573,-4.800607 1.3522,-0.711608 1.40221,-0.71784 5.617,-0.69985 4.85245,0.02071 8.16649,0.504945 10.27168,1.500857 2.3186,1.096877 4.24597,3.763865 4.97335,6.881858 0.34131,1.463046 0.54179,1.937356 0.7226,1.709594 0.0455,-0.05733 0.661,-0.951027 1.36774,-1.985996 0.70674,-1.034969 1.68264,-2.26718 2.16865,-2.738245 l 0.88367,-0.856483 v 4.793222 4.793221 l -4.47027,8.326487 c -6.79407,12.654889 -6.82623,12.70421 -8.28254,12.70421 -1.40549,0 -1.6839,-0.42143 -1.88669,-2.855828 -0.29787,-3.57589 0.31299,-7.59276 2.49144,-16.383319 1.64179,-6.625019 1.53604,-8.678116 -0.49668,-9.642705 -1.13524,-0.538708 -5.56846,-0.977588 -8.25905,-0.817632 -3.21511,0.191139 -3.9238,0.766953 -4.70082,3.819461 -0.79388,3.118721 -2.95337,24.142104 -3.00524,29.257125 -0.0308,3.032332 0.0118,3.347596 0.63027,4.66675 0.78695,1.678574 2.4041,3.336166 3.96463,4.063784 0.9033,0.421172 1.55815,0.517024 3.31456,0.485147 1.20388,-0.02184 2.18887,0.0081 2.18887,0.06643 0,0.05839 -1.48014,2.496599 -3.28919,5.41825 -3.61166,5.832888 -3.96533,6.525179 -3.96533,7.762011 0,1.625865 1.26518,2.297193 6.74061,3.576676 5.29727,1.237851 6.83212,1.128658 8.83333,-0.628426 1.30825,-1.148662 3.95904,-5.160767 7.28472,-11.025805 l 2.90738,-5.127329 v 5.633477 5.633479 l -2.02106,3.496341 c -2.46094,4.257335 -2.98008,4.955622 -4.31531,5.80443 -1.4257,0.906324 -4.28228,1.982386 -5.79618,2.183397 -2.15218,0.28576 -8.80822,-0.740111 -13.07143,-2.014652 -2.51099,-0.750692 -4.35411,-2.132717 -5.3028,-3.976192 -0.55205,-1.072748 -0.63761,-1.558778 -0.63761,-3.622157 0,-2.17188 0.0724,-2.536011 0.81653,-4.107327 0.4491,-0.948292 1.21948,-2.387488 1.71197,-3.198213 0.49249,-0.810724 0.84126,-1.610827 0.77505,-1.778009 -0.0662,-0.167182 -0.75219,-0.683578 -1.52441,-1.147547 -1.73336,-1.041448 -1.95847,-0.909228 -2.49471,1.465317 -0.46964,2.079637 -1.85361,4.914994 -3.0401,6.228294 -2.03649,2.254151 -5.90098,3.150419 -12.7546,2.958094 -5.35952,-0.150396 -7.55318,-0.612681 -11.13193,-2.345905 -4.76271,-2.306628 -8.1617,-6.798929 -8.79433,-11.623099 -0.19241,-1.467194 -0.20736,-4.748323 -0.05,-10.973541 0.12346,-4.88429 0.19597,-8.925422 0.16113,-8.980297 -0.0348,-0.05487 -0.71263,0.245216 -1.50619,0.666868 -1.51,0.802307 -3.28058,1.319166 -6.15961,1.798087 -4.53338,0.754114 -6.98693,2.578227 -7.82773,5.819584 -0.18453,0.711363 -0.50566,4.451594 -0.71363,8.311626 -0.58893,10.931054 -0.80048,11.776185 -3.63189,14.509689 -2.79162,2.695075 -2.99718,2.751012 -10.44809,2.843152 l -6.32501,0.07822 -1.72829,-0.796623 c -1.92913,-0.889194 -2.17716,-0.884191 -4.88368,0.09851 -3.15955,1.147189 -8.19471,1.426425 -13.70272,0.75991 -0.89441,-0.108229 -1.80664,0.03272 -3.62725,0.560437 -2.33395,0.676516 -2.65492,0.705381 -7.93576,0.713649 -6.23921,0.0098 -7.13551,-0.134919 -10.3674,-1.673609 -2.97285,-1.415361 -5.78351,-4.221445 -7.22411,-7.212354 -1.72082,-3.572679 -2.09162,-5.264912 -2.23059,-10.179791 -0.0671,-2.373353 -0.18554,-4.315186 -0.26318,-4.315186 -0.39978,0 -9.7859,4.815487 -10.11628,5.19009 -0.35103,0.398018 -0.30957,0.761104 0.45001,3.940593 1.63196,6.831174 1.92104,8.585536 1.81225,10.998263 -0.0796,1.765814 -0.24633,2.573717 -0.76244,3.694747 -1.81216,3.936188 -3.76789,5.070176 -11.51533,6.676941 -4.55941,0.945588 -6.72472,1.12908 -8.06298,0.683265 z m 8.47819,-6.282873 c 4.37343,-0.95209 4.75917,-1.160605 5.68494,-3.072993 0.84333,-1.742086 0.69938,-3.422577 -0.88406,-10.320871 -0.77375,-3.370848 -1.47541,-6.814321 -1.55925,-7.652163 -0.14986,-1.497644 -0.13894,-1.532954 0.64704,-2.09262 0.4397,-0.3131 3.07155,-1.692243 5.84854,-3.064765 9.69788,-4.793148 13.00701,-7.640315 16.15087,-13.896172 1.39563,-2.777098 1.77901,-4.363758 1.94896,-8.065922 0.64227,-13.990579 -6.8729,-24.368626 -19.79009,-27.329052 -2.96212,-0.678875 -9.08293,-0.71625 -13.77342,-0.0841 -4.57137,0.616091 -10.81258,1.762492 -13.74175,2.524118 -4.87373,1.267242 -5.79341,2.140104 -5.52929,5.247766 0.22379,2.633025 0.86118,5.541485 4.38663,20.016506 4.70285,19.309251 7.57476,32.502951 9.02369,41.455133 0.63962,3.951932 1.32628,5.465194 3.05357,6.729543 1.00893,0.738522 1.1342,0.76628 2.80715,0.622025 0.9631,-0.08305 3.54001,-0.540439 5.72647,-1.016428 z m 43.92943,-7.02041 c 2.69289,-0.429167 4.7311,-1.311676 6.5787,-2.848472 1.3314,-1.107427 1.9266,-1.106201 1.9266,0.004 0,1.662898 1.84594,2.362928 5.6285,2.134481 4.16414,-0.251491 6.27244,-0.99602 7.04366,-2.487408 0.584,-1.129321 0.9002,-7.14991 0.72519,-13.807634 -0.18929,-7.2009 -0.51627,-11.106523 -1.27925,-15.280111 -1.82938,-10.006853 -5.47281,-15.168491 -11.6766,-16.542213 -2.59877,-0.575454 -9.51124,-0.578981 -11.63213,-0.0059 -2.24929,0.607736 -3.81686,1.477584 -5.54335,3.076002 -2.95475,2.735585 -4.78042,6.581416 -4.77848,10.06603 0.001,2.129493 0.56017,3.156122 1.92476,3.53506 1.25999,0.349891 1.9874,0.333986 4.91641,-0.107496 3.36542,-0.507264 4.67685,-1.236015 6.07875,-3.377938 2.11722,-3.234838 2.46337,-3.63158 3.10963,-3.564078 0.87658,0.09156 2.14131,1.576634 2.56889,3.01643 0.56634,1.907074 0.77074,3.993368 0.43131,4.402352 -0.20442,0.246304 -1.22332,0.398196 -3.4687,0.517097 -9.55557,0.505998 -15.55285,2.932205 -18.72595,7.575598 -1.65694,2.424689 -2.13441,4.252554 -2.2701,8.690446 -0.18749,6.131872 0.65017,8.811827 3.66355,11.721006 1.66656,1.608926 3.98335,2.985008 5.71151,3.392411 1.52166,0.358723 6.50662,0.298471 9.0671,-0.109591 z m 38.83583,-1.383258 c 1.19974,-0.333187 2.61777,-1.791645 2.95323,-3.037413 0.14371,-0.533702 0.41827,-4.541952 0.61014,-8.907219 0.19187,-4.365267 0.47337,-8.498122 0.62556,-9.184119 0.3279,-1.478035 1.78498,-4.02474 3.26136,-5.70025 2.26245,-2.567616 5.81309,-4.332102 9.20421,-4.574015 1.05622,-0.07535 2.44737,-0.251441 3.09143,-0.391318 1.44106,-0.312965 1.64162,-0.764146 1.86445,-4.194166 0.22524,-3.467118 -0.12738,-4.894196 -1.55514,-6.293882 -1.09852,-1.076923 -1.17076,-1.106134 -2.68324,-1.085181 -2.45214,0.03397 -6.48386,1.510888 -10.89278,3.990291 -1.09183,0.614003 -2.03522,1.116368 -2.09643,1.116368 -0.0612,0 -0.25154,-0.9428 -0.42298,-2.095109 -0.34867,-2.343581 -0.94368,-3.54687 -1.94149,-3.926234 -0.86641,-0.32941 -7.42918,-0.327526 -9.74254,0.0028 -2.24028,0.319886 -3.01138,0.610672 -3.20064,1.206974 -0.40837,1.286658 -0.67383,7.95843 -0.80358,20.196147 -0.1461,13.779992 0.09,21.57713 0.6746,22.281569 0.1641,0.197735 0.65007,0.46149 1.07992,0.586117 1.09436,0.31729 8.83837,0.323999 9.97392,0.0086 z m 51.70949,0.01609 c 1.25119,-0.358833 2.92663,-2.120037 3.51643,-3.696411 0.55045,-1.471195 1.245,-5.356466 1.24657,-6.9732 5e-4,-0.641799 -0.17772,-1.256164 -0.46911,-1.616018 l -0.47012,-0.580569 -2.71937,0.448254 c -1.49565,0.246541 -3.3271,0.410898 -4.06989,0.36524 -1.14041,-0.0701 -1.43231,-0.192745 -1.87617,-0.788276 -0.46049,-0.617849 -0.53573,-1.118048 -0.60702,-4.035649 -0.12654,-5.178811 1.19862,-11.939802 2.82699,-14.423318 0.74249,-1.132429 1.14531,-1.216544 5.97857,-1.248397 2.08098,-0.01371 4.06376,-0.102919 4.40618,-0.19823 0.88328,-0.245863 1.55789,-1.377508 2.48135,-4.162396 1.02551,-3.09267 1.22683,-4.63127 0.67784,-5.180264 -0.76439,-0.764391 -3.28491,-1.480444 -7.28982,-2.070959 -2.2067,-0.325376 -4.31824,-0.707956 -4.69232,-0.850182 -0.85907,-0.326616 -0.87437,-0.905231 -0.15768,-5.963956 0.71917,-5.076181 0.7159,-6.404412 -0.0177,-7.185303 -0.74614,-0.794228 -2.25001,-1.268009 -5.53998,-1.745323 -3.19378,-0.463359 -5.63027,-0.489567 -6.44752,-0.06935 -1.28081,0.658562 -2.03142,2.044299 -3.50124,6.463776 -2.17843,6.550143 -1.96071,6.289606 -5.49455,6.575451 -2.36625,0.191402 -3.37016,0.604324 -3.87886,1.595428 -0.64346,1.253648 -1.00975,3.903025 -0.93056,6.730775 0.0386,1.378843 1.02392,2.237868 3.09327,2.696796 2.43365,0.539721 3.05952,0.814642 3.42984,1.50659 0.41278,0.771288 0.41374,1.556666 0.0115,9.386755 -0.26134,5.087306 -0.27993,7.894008 -0.0799,12.067549 0.24534,5.119446 0.30001,5.518925 0.93215,6.810966 0.88241,1.803583 2.70205,3.380882 5.51841,4.78347 1.82154,0.907147 2.63351,1.160938 4.25265,1.32921 2.88538,0.299867 8.86241,0.316544 9.8701,0.02754 z m 6.25443,-18.455877 c 0.56233,-0.455349 0.9727,-2.440622 1.39922,-6.769206 l 0.17687,-1.7949 h -2.79541 c -4.03811,0 -3.81747,-0.32968 -4.73034,7.067827 -0.11466,0.929213 -0.15262,1.745346 -0.0843,1.813629 0.0683,0.06828 1.33119,0.12415 2.80645,0.12415 2.19048,0 2.78228,-0.08095 3.22754,-0.4415 z"
         id="path1503"
         transform="matrix(1.7144251,0,0,1.8229712,-1598.2215,-169.66143)" />
      <path
         style="font-variation-settings:normal;opacity:1;vector-effect:none;fill:#f9f9f9;fill-opacity:1;stroke-width:0.00969895;stroke-linecap:butt;stroke-linejoin:miter;stroke-miterlimit:4;stroke-dasharray:none;stroke-dashoffset:0;stroke-opacity:1;stop-color:#000000;stop-opacity:1"
         d="m 496.36358,77.244458 v -5.571282 l 2.57981,-4.678848 c 7.67558,-13.920787 11.39545,-20.851807 14.28044,-26.607989 l 2.08905,-4.168086 v -0.921889 c 0,-0.878355 -0.02,-0.942534 -0.42374,-1.359077 -0.72627,-0.749321 -1.87339,-1.095941 -6.51808,-1.96955 -2.39215,-0.449933 -3.06752,-0.530613 -4.50281,-0.537906 -1.57049,-0.008 -1.73664,0.01424 -2.37647,0.317883 -1.34248,0.637085 -2.45831,1.908402 -4.14152,4.718616 l -0.92414,1.542899 -0.0361,-4.669845 -0.0361,-4.669845 0.50351,-0.45335 c 1.66093,-1.495474 5.01065,-2.274723 8.55996,-1.991309 4.67839,0.373572 9.7703,1.667612 12.19449,3.099064 0.89791,0.530205 2.09166,1.75983 2.63377,2.712917 0.94959,1.669511 1.01187,3.616623 0.19379,6.059056 -0.77569,2.315882 -3.72113,8.114842 -9.66525,19.028833 -4.44398,8.15959 -14.0106,25.269861 -14.2978,25.572167 -0.0672,0.07075 -0.11289,-2.135014 -0.11289,-5.452459 z"
         id="path1505"
         transform="matrix(1.7144251,0,0,1.8229712,-1598.2215,-169.66143)" />
      <path
         style="font-variation-settings:normal;opacity:1;vector-effect:none;fill:#f9f9f9;fill-opacity:1;stroke-width:0.0137164;stroke-linecap:butt;stroke-linejoin:miter;stroke-miterlimit:4;stroke-dasharray:none;stroke-dashoffset:0;stroke-opacity:1;stop-color:#000000;stop-opacity:1"
         d="m 85.061462,66.02206 c -2.939454,-0.581548 -4.947069,-3.471646 -6.015784,-8.660126 -0.198284,-0.962641 -0.31236,-2.33079 -0.317099,-3.803066 -0.0062,-1.940404 0.05665,-2.494942 0.402754,-3.550795 0.801685,-2.445701 2.498314,-3.901252 5.048864,-4.331458 4.10542,-0.692468 6.633395,1.389214 7.961061,6.555602 1.371122,5.335491 0.853308,10.060175 -1.331763,12.151391 -0.759652,0.727022 -2.321032,1.437702 -3.629456,1.651991 -1.147211,0.187884 -1.098923,0.188194 -2.118577,-0.01353 z m 1.909803,-5.785715 c 0.4343,-1.094711 0.108182,-6.006679 -0.52478,-7.904209 -0.341406,-1.023487 -1.0398,-1.568679 -1.576966,-1.231039 -0.876909,0.551188 -0.136166,7.185097 1.010167,9.046804 0.43281,0.702907 0.834881,0.735484 1.091579,0.08844 z"
         id="path1507"
         transform="matrix(1.7144251,0,0,1.8229712,-1598.2215,-169.66143)" />
    </g>
  </g>
</svg>
